<?xml version="1.0" encoding="UTF-8"?>
<svg version="1.1" viewBox="0 0 1600 792" width="1280" height="1280" xmlns="http://www.w3.org/2000/svg">
<path transform="translate(0)" d="m0 0h1600v792h-1600v-792z" fill="#F9FCFE"/>
<path transform="translate(881 77.9)" d="m0 0c1.35 2.34e-4 1.35 2.34e-4 2.73 4.73e-4 1.04-0.00225 2.07-0.00449 3.14-0.00681 1.15 0.00263 2.31 0.00525 3.5 0.00796 1.22-0.00115 2.44-0.00231 3.69-0.0035 3.41-0.00221 6.83 1.23e-4 10.2 0.00428 3.7 0.00342 7.4 0.00107 11.1-5.77e-4 6.5-0.00208 13-4.2e-4 19.5 0.00364 9.66 0.00602 19.3 0.00634 29 0.00546 16.2-0.00132 32.5 0.00204 48.7 0.00802 16.1 0.00591 32.2 0.00976 48.3 0.0109 1.5 1.03e-4 1.5 1.03e-4 3.03 2.08e-4 5.08 3.38e-4 10.2 6.4e-4 15.2 9.27e-4 36 0.0021 72 0.00884 108 0.0183 35 0.00918 69.9 0.0162 105 0.0205 2.2 2.71e-4 4.39 5.41e-4 6.59 8.12e-4 17.9 0.00219 35.7 0.00423 53.6 0.00624 82.6 0.00939 165 0.0295 248 0.0479v714h-1132c0.896-4.48 1.83-6.87 4.02-10.7 0.916-1.63 0.916-1.63 1.85-3.29 0.641-1.12 1.28-2.25 1.94-3.4 0.63-1.12 1.26-2.24 1.91-3.39 4.68-8.27 4.68-8.27 7.32-12.2 1.76-2.65 3.31-5.3 4.81-8.11 3.15-5.84 6.39-11.6 9.66-17.4 0.543-0.964 1.09-1.93 1.64-2.92 3.06-5.41 6.18-10.8 9.4-16.1 2.45-4.09 4.79-8.23 7.15-12.4 7.94-13.9 15.9-27.9 24.2-41.6 1.52-2.54 2.98-5.11 4.41-7.7 3.03-5.48 6.19-10.9 9.35-16.3 0.926-1.59 0.926-1.59 1.87-3.2 2.72-4.65 5.44-9.3 8.19-13.9 4.94-8.32 9.71-16.7 14.3-25.2 3.16-5.81 6.51-11.5 9.93-17.1 2.17-3.64 4.34-7.29 6.5-10.9 0.543-0.912 1.09-1.82 1.64-2.76 3.26-5.5 6.39-11.1 9.43-16.7 2.11-3.87 4.33-7.68 6.55-11.5 4.59-7.89 9.13-15.8 13.6-23.7 2.36-4.15 4.76-8.28 7.23-12.4 3.03-5.02 5.93-10.1 8.82-15.2 4.94-8.68 10-17.3 15.2-25.8 0.494-0.938 0.987-1.88 1.5-2.84 1.5-2.16 1.5-2.16 3.23-2.78 2.75-0.452 5.37-0.498 8.16-0.497 1.21-0.00225 2.43-0.00449 3.68-0.00681 1.35 0.00257 2.7 0.00522 4.06 0.00796 1.44-7.39e-4 2.88-0.00192 4.32-0.0035 3.98-0.00308 7.95 1.14e-4 11.9 0.00428 4.32 0.00343 8.64 0.00107 13-5.77e-4 7.57-0.00208 15.1-4.24e-4 22.7 0.00364 11.3 0.00602 22.5 0.00634 33.8 0.00546 18.9-0.00132 37.9 0.00203 56.8 0.00802 18.8 0.00591 37.5 0.00976 56.3 0.0109 1.17 6.87e-5 2.33 1.37e-4 3.53 2.08e-4 5.92 3.38e-4 11.8 6.4e-4 17.8 9.27e-4 42 0.0021 83.9 0.00884 126 0.0183 40.8 0.00918 81.5 0.0163 122 0.0205 1.26 1.32e-4 2.51 2.63e-4 3.81 3.99e-4 12.6 0.00132 25.2 0.00259 37.8 0.00384 25.7 0.00254 51.4 0.00536 77.1 0.00835 1.18 1.37e-4 2.36 2.75e-4 3.58 4.16e-4 78.9 0.0092 158 0.0251 237 0.0419-0.163-1.08-0.325-2.17-0.493-3.29-0.498-3.65-0.619-7.08-0.6-10.8 0.00197-0.673 0.00394-1.35 0.00596-2.04 0.00767-2.24 0.0225-4.47 0.0373-6.71 0.00684-1.61 0.0132-3.22 0.019-4.83 0.0133-3.46 0.0294-6.92 0.0476-10.4 0.0279-5.48 0.0449-11 0.0595-16.4 0.00514-1.88 0.0103-3.76 0.0155-5.64 0.00259-0.94 0.00517-1.88 0.00784-2.85 0.036-12.7 0.0814-25.5 0.148-38.2 0.0446-8.61 0.0748-17.2 0.0889-25.8 0.00805-4.55 0.0235-9.1 0.0567-13.6 0.0312-4.28 0.0435-8.56 0.0418-12.8 0.00268-1.56 0.0122-3.13 0.0292-4.69 0.0965-9.26 0.0443-18.1-5.92-25.7-7.33-7.21-18.3-6.44-27.9-6.4-1.21-4e-3 -2.42-0.00799-3.67-0.0121-3.35-0.00905-6.7-0.00925-10-0.00565-3.65 0.00171-7.29-0.00816-10.9-0.0166-6.39-0.0131-12.8-0.0189-19.2-0.0198-9.5-0.00138-19-0.0142-28.5-0.0293-16-0.0251-32-0.041-47.9-0.0516-15.8-0.0105-31.6-0.0252-47.5-0.0453-0.984-0.00125-1.97-0.0025-2.98-0.00378-5-0.00636-9.99-0.0128-15-0.0193-35.4-0.0457-70.8-0.0821-106-0.113-34.4-0.0302-68.7-0.0645-103-0.104-1.06-0.00123-2.12-0.00246-3.21-0.00373-10.6-0.0124-21.3-0.0248-31.9-0.0373-21.7-0.0255-43.3-0.0504-65-0.075-0.997-0.00113-1.99-0.00226-3.02-0.00343-66.5-0.0754-133-0.138-200-0.198-0.33-0.66-0.66-1.32-1-2 1.12-2.46 1.12-2.46 2.86-5.52 0.621-1.1 1.24-2.21 1.88-3.34 0.33-0.576 0.659-1.15 0.999-1.75 0.998-1.74 1.98-3.5 2.97-5.25 4.83-8.54 4.83-8.54 6.83-11.2 1.65-2.21 2.91-4.48 4.21-6.91 3.35-6.23 6.79-12.4 10.2-18.6 0.59-1.06 1.18-2.12 1.79-3.21 3.2-5.72 6.48-11.4 9.87-17 1.87-3.12 3.64-6.3 5.4-9.49 3.62-6.5 7.38-12.9 11.2-19.3 4.56-7.67 9.01-15.4 13.4-23.2 4.4-7.85 8.96-15.6 13.7-23.2 2.87-4.66 5.56-9.37 8.13-14.2 2.03-3.7 4.19-7.32 6.36-10.9 0.597-0.997 0.597-0.997 1.21-2.01 3.52-5.83 3.52-5.83 6-5.99z" fill="#4678D0"/>
<path transform="translate(1521,268)" d="m0 0h2c2.45 2.6 3.89 4.65 5 8.06 1.11 3.27 2.56 4.58 5 6.94v3h2c0.166 1.1 0.166 1.1 0.335 2.23 0.506 3.34 1.02 6.68 1.54 10 0.174 1.16 0.348 2.32 0.527 3.51 0.174 1.12 0.348 2.23 0.527 3.38 0.157 1.03 0.314 2.05 0.476 3.11 0.558 2.58 1.42 4.41 2.59 6.75 0.0777 2.33 0.0897 4.67 0 7h3c2.05 6.75 2.28 13 2.23 20-6.87e-4 1.71-6.87e-4 1.71-0.00139 3.45-0.00301 2.4-0.0109 4.8-0.0233 7.2-0.0182 3.65-0.0205 7.29-0.0203 10.9-0.00492 2.34-0.0107 4.69-0.0176 7.03-0.00111 1.08-0.00223 2.15-0.00337 3.26-0.0366 5.94-0.337 11.8-0.93 17.7-0.297 3.09-0.426 6.18-0.516 9.28-0.0561 1.75-0.0561 1.75-0.113 3.53-0.0711 2.41-0.141 4.81-0.211 7.22-0.0561 1.73-0.0561 1.73-0.113 3.5-0.0454 1.56-0.0454 1.56-0.0918 3.15-0.165 2.4-0.511 4.46-1.19 6.76h-2v25h2v12h-3c0.155 1.11 0.155 1.11 0.312 2.25-0.312 2.75-0.312 2.75-2.81 5.06-0.825 0.557-1.65 1.11-2.5 1.69 0.33-1.65 0.66-3.3 1-5-1.84-0.772-1.84-0.772-4-1-2.18 1.53-2.89 2.64-3.69 5.19-0.103 0.598-0.206 1.2-0.312 1.81h-2c0.0116 0.782 0.0232 1.56 0.0352 2.37 0.0135 1.52 0.0135 1.52 0.0273 3.07 0.0116 1.01 0.0232 2.02 0.0352 3.06-0.0977 2.5-0.0977 2.5-1.1 3.5-0.233 1.68-0.413 3.37-0.562 5.06-0.0838 0.919-0.168 1.84-0.254 2.79-0.0606 0.71-0.121 1.42-0.184 2.15h2c-0.0309-1.7-0.0309-1.7-0.0625-3.44 0.0625-3.56 0.0625-3.56 1.06-4.56 0.537-3.36 0.966-6.72 1.4-10.1 0.197-0.959 0.394-1.92 0.598-2.91 0.66-0.33 1.32-0.66 2-1 0.0269 1.81 0.0463 3.62 0.0625 5.44 0.0116 1.01 0.0232 2.02 0.0352 3.06-0.0977 2.5-0.0977 2.5-1.1 3.5-0.233 1.68-0.413 3.37-0.562 5.06-0.0838 0.919-0.168 1.84-0.254 2.79-0.0606 0.71-0.121 1.42-0.184 2.15h-2c-0.33 0.99-0.66 1.98-1 3h-5v4c-1.26 0.0561-1.26 0.0561-2.55 0.113l-3.32 0.199c-1.64 0.087-1.64 0.087-3.3 0.176-0.931 0.169-1.86 0.338-2.82 0.512-0.66 0.99-1.32 1.98-2 3h-4v2c-1.01 0.049-2.03 0.098-3.07 0.148-1.35 0.0751-2.7 0.151-4.05 0.227-0.998 0.0464-0.998 0.0464-2.02 0.0938-4.28 0.252-7.83 1.11-11.9 2.53-2.39 0.326-4.74 0.495-7.14 0.656-0.612 0.113-1.22 0.227-1.86 0.344-0.33 0.66-0.66 1.32-1 2-5.94 0.33-11.9 0.66-18 1-0.33 0.66-0.66 1.32-1 2v-2h-4c-0.33 0.66-0.66 1.32-1 2v-3c-4.95 0.33-9.9 0.66-15 1v2c-18.8 2.48-18.8 2.48-28 1v-4c-0.609 1.56e-4 -1.22 3.12e-4 -1.84 4.73e-4 -66.3 0.0169-133 0.0327-199 0.0419-0.99 1.38e-4 -1.98 2.76e-4 -3 4.18e-4 -21.5 0.00299-43 0.00576-64.6 0.0083-10.6 0.00125-21.1 0.00254-31.7 0.00387-1.05 1.31e-4 -2.1 2.62e-4 -3.18 3.96e-4 -34 0.00426-68.1 0.0118-102 0.021-35 0.00944-70 0.0156-105 0.0176-4.94 2.88e-4 -9.88 6.14e-4 -14.8 9.62e-4 -1.46 1.01e-4 -1.46 1.01e-4 -2.95 2.04e-4 -15.7 0.00118-31.3 0.00582-47 0.0118-15.7 0.00589-31.5 0.00813-47.2 0.00667-9.35-7.6e-4 -18.7 0.00126-28 0.0073-6.25 0.00376-12.5 0.00386-18.8 0.00103-3.56-0.00151-7.12-0.00146-10.7 0.00305-36.3 0.043-36.3 0.043-45.4-3.12-2.16-0.28-4.32-0.488-6.49-0.633-1.2-0.0838-2.4-0.168-3.63-0.254-1.24-0.0786-2.48-0.157-3.75-0.238-1.89-0.13-1.89-0.13-3.82-0.262-3.1-0.211-6.2-0.416-9.3-0.613-0.33 0.66-0.66 1.32-1 2-2.77 1.1-5.59 1.99-8.43 2.9-2.86 0.947-2.86 0.947-4.57 4.1h-4c-1.35 0.973-2.69 1.97-4 3-2.54 0.845-4.29 1-7 1 0.682-4.04 2.73-7.32 4.75-10.8 0.822-1.44 1.64-2.88 2.46-4.32 0.447-0.78 0.894-1.56 1.35-2.36 1.51-2.65 3.01-5.31 4.5-7.97 6.73-12 13.6-23.9 20.8-35.6 0.963-1.61 1.86-3.25 2.73-4.91 1.41-2.01 1.41-2.01 3.13-2.63 2.76-0.462 5.37-0.507 8.17-0.506 1.21-0.00225 2.43-0.00449 3.68-0.00681 1.35 0.00257 2.7 0.00522 4.06 0.00796 1.44-7.39e-4 2.88-0.00192 4.32-0.0035 3.98-0.00308 7.95 1.14e-4 11.9 0.00428 4.32 0.00343 8.64 0.00107 13-5.77e-4 7.57-0.00208 15.1-4.24e-4 22.7 0.00364 11.3 0.00602 22.5 0.00634 33.8 0.00546 18.9-0.00132 37.9 0.00203 56.8 0.00802 18.8 0.00591 37.5 0.00976 56.3 0.0109 1.17 6.87e-5 2.33 1.37e-4 3.53 2.08e-4 5.92 3.38e-4 11.8 6.4e-4 17.8 9.27e-4 42 0.0021 83.9 0.00884 126 0.0183 40.8 0.00918 81.5 0.0163 122 0.0205 1.26 1.32e-4 2.51 2.63e-4 3.81 3.99e-4 12.6 0.00132 25.2 0.00259 37.8 0.00384 25.7 0.00254 51.4 0.00536 77.1 0.00835 1.18 1.37e-4 2.36 2.75e-4 3.58 4.16e-4 78.9 0.0092 158 0.0251 237 0.0419-0.163-1.08-0.325-2.17-0.493-3.29-0.498-3.65-0.622-7.08-0.607-10.8 0.00189-1.01 0.00189-1.01 0.00383-2.04 0.00534-2.24 0.0179-4.47 0.0303-6.71 0.0052-1.61 0.00991-3.22 0.0142-4.84 0.00992-3.46 0.0228-6.93 0.0377-10.4 0.0231-5.48 0.0364-11 0.0477-16.4 0.0334-15.6 0.075-31.2 0.138-46.7 0.0346-8.61 0.0583-17.2 0.0702-25.8 0.00808-5.44 0.0293-10.9 0.0602-16.3 0.0161-3.39 0.0194-6.79 0.0192-10.2 0.00241-1.57 0.00994-3.13 0.0231-4.7 0.0654-8.11-0.141-15.2-3.34-22.7 2.38-0.625 2.38-0.625 5-1 0.66 0.66 1.32 1.32 2 2 2.07 0.643 2.07 0.643 4 1 0.33-0.66 0.66-1.32 1-2 0.99 0.66 1.98 1.32 3 2 0.33-0.99 0.66-1.98 1-3 1.32 0.99 2.64 1.98 4 3-0.66-1.65-1.32-3.3-2-5z" fill="#4575CC"/>
<path transform="translate(1600,78)" d="m0 0v714h-1132c0.793-3.97 1.43-6.31 3.25-9.75l1.2-2.36c2.02-2.47 3.44-2.52 6.55-2.89 3.07-0.776 3.07-0.776 5-3l1 4v-4h2v3l2-1c1.71-0.07 3.42-0.0844 5.12-0.0625l2.76 0.0273c1.05 0.0174 1.05 0.0174 2.12 0.0352v-2c2.31-0.33 4.62-0.66 7-1l-0.5-3.25c-0.5-3.75-0.5-3.75-0.5-7.75-0.66-0.33-1.32-0.66-2-1 1-1 1-1 3.56-1.06 0.804 0.0206 1.61 0.0412 2.44 0.0625 0.66-1.32 1.32-2.64 2-4h10c0.99 2.31 1.98 4.62 3 7 1.32-0.33 2.64-0.66 4-1v4l-3.38 1.44c-1.89 0.816-3.78 1.64-5.62 2.56 0.756-0.0708 1.51-0.142 2.29-0.215 8.81-0.759 17.6-0.924 26.4-0.906 1.55-4.37e-4 3.11-0.00131 4.66-0.00259 4.25-0.00222 8.51 0.00176 12.8 0.00678 4.63 0.00435 9.27 0.00285 13.9 0.00209 8.12-5.32e-4 16.2 0.00263 24.4 0.00823 12.1 0.0083 24.1 0.0108 36.2 0.0121 20.3 0.00233 40.6 0.00918 60.9 0.0185 27.8 0.0126 55.5 0.0186 83.3 0.0229 12.9 0.00201 25.9 0.00433 38.8 0.00674 1.3 2.41e-4 2.59 4.82e-4 3.92 7.3e-4 30.1 0.00568 60.3 0.0143 90.4 0.0236 2.04 6.28e-4 4.09 0.00126 6.13 0.00188 21.9 0.00671 43.8 0.0136 65.6 0.0206 19.8 0.00628 39.6 0.0125 59.4 0.0186 2.04 6.27e-4 4.08 0.00125 6.12 0.00188 30.7 0.00946 61.5 0.018 92.2 0.0237 1.94 3.61e-4 1.94 3.61e-4 3.92 7.3e-4 12.9 0.00239 25.8 0.00461 38.8 0.00661 27.7 0.00431 55.4 0.0114 83.2 0.024 20.2 0.00921 40.4 0.0149 60.6 0.0171 12 0.00141 24 0.00564 36 0.0139 8.03 0.00529 16.1 0.00688 24.1 0.00557 4.56-6.36e-4 9.13 2.47e-4 13.7 0.0057 16.8 0.0192 33.6-0.00279 50.5-0.769 7.28-0.331 14.5-0.402 21.8-0.35v-2c8.07 0.345 8.07 0.345 11.6 2.81 1.44 2.19 1.44 2.19 1.44 6.19 3.07 0.911 5.8 1.09 9 1-0.33-1.32-0.66-2.64-1-4h4c-0.524-0.814-0.524-0.814-1.06-1.64-0.683-1.07-0.683-1.07-1.38-2.17-0.452-0.708-0.905-1.42-1.37-2.14-2.04-3.5-2.31-6.26-2.25-10.2 0.00902-0.901 0.018-1.8 0.0273-2.73 0.0116-0.687 0.0232-1.37 0.0352-2.08 1.33 1.33 2.67 2.67 4 4-0.107-0.75-0.214-1.5-0.324-2.27-1.17-9.98 0.0458-17.7 6.32-25.7 0.385-0.563 0.771-1.13 1.17-1.71 5.17-6.96 13.4-11.1 21.9-12.4 9.79-0.424 18.7 3.31 25.8 9.78 6.56 6.8 9.26 14.2 9.26 23.6-0.0283 1.41-0.0741 2.82-0.139 4.23-0.158 3.73-0.118 6.32 1.97 9.48 0.454-0.495 0.908-0.99 1.38-1.5 1.62-1.5 1.62-1.5 3.62-1.5 0.124-0.887 0.247-1.77 0.375-2.69 0.789-4.18 1.59-7.28 4.62-10.3 2.66-5.76 2.35-11.7 2.41-18 0.0194-1.15 0.0387-2.29 0.0587-3.47 0.0596-3.65 0.106-7.29 0.152-10.9 0.0382-2.48 0.0772-4.96 0.117-7.43 0.0959-6.06 0.181-12.1 0.258-18.2h1c0.66 13.5 1.32 27.1 2 41h6v-5h6c1.28-14.6 1.14-29.1 1.12-43.7-0.00436-3.74-0.00285-7.49-0.0021-11.2 5.22e-4 -6.47-0.00259-12.9-0.00824-19.4-0.00817-9.35-0.0107-18.7-0.012-28.1-0.00218-15.2-0.00882-30.4-0.0183-45.5-0.00919-14.7-0.0163-29.5-0.0205-44.2-3.94e-4 -1.36-3.94e-4 -1.36-7.96e-4 -2.76-0.00131-4.56-0.00257-9.13-0.00381-13.7-0.0103-37.8-0.0279-75.6-0.0503-113h-1c-0.33-18.2-0.66-36.3-1-55h2c0.0229-30.3 0.0405-60.6 0.0511-90.9 0.00125-3.58 0.00254-7.17 0.00387-10.8 2.62e-4 -0.714 5.25e-4 -1.43 7.95e-4 -2.16 0.00434-11.5 0.0122-23.1 0.0214-34.6 0.00938-11.8 0.0149-23.7 0.0169-35.5 0.00124-6.64 0.00434-13.3 0.0116-19.9 0.00683-6.26 0.00887-12.5 0.00738-18.8 2.73e-4 -2.29 0.00224-4.58 0.0061-6.87 0.0196-12.2-0.197-24.3-1.12-36.5v19h-1c-0.13-1.16-0.13-1.16-0.262-2.34-0.141-1-0.281-2.01-0.426-3.04-0.128-0.998-0.255-2-0.387-3.02-0.681-2.85-0.681-2.85-3.51-3.95-0.798-0.214-1.6-0.428-2.42-0.648-0.33 1.65-0.66 3.3-1 5-1.98 0.33-3.96 0.66-6 1-0.0542-1.44-0.0929-2.87-0.125-4.31-0.0232-0.801-0.0464-1.6-0.0703-2.43 0.195-2.26 0.195-2.26 2.2-5.26v-2c2.64-0.33 5.28-0.66 8-1-0.66-0.66-1.32-1.32-2-2 3-2 3-2 6-2-0.33-0.66-0.66-1.32-1-2h-11v-1c1.52-0.171 3.04-0.337 4.56-0.5 0.847-0.0928 1.69-0.186 2.57-0.281 3.28-0.25 6.58-0.219 9.87-0.219z" fill="#4878CD"/>
<path transform="translate(1399,112)" d="m0 0c1.32 0.621 1.32 0.621 2.67 1.25 6.06 3.22 9.09 6.21 11.3 12.7 0.575 3.28 0.696 6.49 0.75 9.81 0.0267 0.906 0.0535 1.81 0.0811 2.75 0.0503 1.88 0.0909 3.76 0.122 5.64 0.0455 2.72 0.123 5.43 0.203 8.15 0.0338 1.68 0.0652 3.35 0.0938 5.03 0.0324 1.15 0.0324 1.15 0.0654 2.32 0.0347 6.03-1.12 10.6-4.97 15.4-9.27 8.11-20.6 9.83-32.3 11.9 0.743 1.52 0.743 1.52 1.5 3.06 2.37 6.43 2.44 13.2 1.5 19.9-1.35 2.76-2.78 4.86-4.79 7.17-1.46 1.76-1.46 1.76-0.898 3.88 0.226 0.643 0.451 1.29 0.684 1.95v3c0.621 1.68 1.29 3.35 2 5 1.28 2.99 2 4.72 2 8 1.65 0.33 3.3 0.66 5 1-0.66 1.32-1.32 2.64-2 4 2.97 0.33 5.94 0.66 9 1 0.977-6.4 1.35-11.1-1.29-17-2.21-6.1-0.937-14 1.29-20 3.83-6.99 10.8-10.3 18-13 13.1-3.73 29.1-3.19 41.6 2.55 4.74 2.81 7.8 5.07 9.45 10.4h3c2.52 1.73 2.96 2.79 3.55 5.81 0.067 1.05 0.134 2.1 0.203 3.19 0.0773 1.05 0.155 2.1 0.234 3.19 0.0156 2.81 0.0156 2.81-0.984 5.81-0.0811 1.55-0.108 3.11-0.0977 4.67 0.00322 0.893 0.00645 1.79 0.00977 2.71 0.00838 0.929 0.0168 1.86 0.0254 2.81 0.00677 1.41 0.00677 1.41 0.0137 2.85 0.0118 2.32 0.0282 4.64 0.0488 6.96 0.99 0.33 1.98 0.66 3 1 0.702 1.65 1.37 3.32 2 5 0.66 0.33 1.32 0.66 2 1v2c1.08 0.0864 2.15 0.173 3.26 0.262 9.33 0.856 18.5 1.95 26.7 6.74 1.35 2.16 1.35 2.16 2 4h3v2c1.98 0.66 3.96 1.32 6 2v3c-7.77-1.51-12.6-3.47-18.6-8.66-6.38-3.58-15.4-2.49-22.5-2.48-1.21-0.00284-2.42-0.00568-3.66-0.00861-3.35-0.00688-6.7-0.00934-10.1-0.00993-3.65-0.00173-7.29-0.00922-10.9-0.016-6.39-0.011-12.8-0.0184-19.2-0.0234-9.5-0.00741-19-0.0205-28.5-0.0347-16-0.0238-32-0.043-47.9-0.0596-15.8-0.0164-31.6-0.0349-47.5-0.0561-0.984-0.00132-1.97-0.00264-2.98-0.00399-5-0.0067-9.99-0.0134-15-0.0202-35.4-0.0478-70.8-0.091-106-0.131-34.4-0.0393-68.8-0.0808-103-0.125-1.59-0.00204-1.59-0.00204-3.21-0.00413-10.6-0.0137-21.3-0.0274-31.9-0.0412-21.7-0.028-43.4-0.0558-65-0.0833-0.997-0.00127-1.99-0.00254-3.02-0.00384-66.6-0.0847-133-0.163-200-0.24-0.33-0.66-0.66-1.32-1-2 1.12-2.46 1.12-2.46 2.86-5.52 0.621-1.1 1.24-2.21 1.88-3.34 0.33-0.576 0.659-1.15 0.999-1.75 0.998-1.74 1.98-3.5 2.97-5.25 5.14-9.07 5.14-9.07 8.29-13.1 0.66-0.99 1.32-1.98 2-3 2 1 2 1 4 4v3h-2c-0.826 2.89-1 4.89-1 8-0.613 1.69-1.27 3.36-2 5l2.16-0.0703c5.72-0.108 10.4 0.276 15.8 2.07 2.33 0.37 4.66 0.714 7 1v-2h30l-5-2v-1c6.07-1.07 12-1.14 18.1-1.12 1.11-8.54e-4 2.23-0.00171 3.37-0.00259 3.72-0.00165 7.45 0.00385 11.2 0.00932 2.67 2.82e-4 5.34 1.68e-4 8.01-4.43e-4 5.75-5.24e-4 11.5 0.00261 17.2 0.00824 8.31 0.00814 16.6 0.0107 24.9 0.012 13.5 0.00219 27 0.00884 40.5 0.0183 13.1 0.00918 26.2 0.0163 39.3 0.0205 0.808 2.63e-4 1.62 5.25e-4 2.45 7.96e-4 4.05 0.00131 8.1 0.00257 12.2 0.00381 33.6 0.0104 67.2 0.028 101 0.0503-0.33 0.66-0.66 1.32-1 2 1.49-0.99 1.49-0.99 3-2 2.27-0.246 2.27-0.246 4.99-0.241 1.55-0.00412 1.55-0.00412 3.12-0.00833 1.13 0.00719 2.26 0.0144 3.42 0.0218 1.79-4.38e-4 1.79-4.38e-4 3.61-8.85e-4 3.26 0.00116 6.53 0.0112 9.79 0.0251 3.41 0.0125 6.82 0.0137 10.2 0.0161 6.46 0.00622 12.9 0.0226 19.4 0.0427 7.35 0.0223 14.7 0.0333 22.1 0.0434 15.1 0.0209 30.3 0.0561 45.4 0.101-0.33 0.66-0.66 1.32-1 2h7v3h12v-3c1.22-0.144 2.43-0.289 3.69-0.438 3.14-0.39 6.22-0.886 9.31-1.56-1.65-0.33-3.3-0.66-5-1v-3c1.14-0.0606 2.29-0.121 3.46-0.184 1.49-0.0844 2.98-0.169 4.47-0.254 0.755-0.0393 1.51-0.0786 2.29-0.119 3.69 0.116 3.69 0.116 6.78-1.44 2-0.0408 4-0.0425 6 0v-2c1.65-0.66 3.3-1.32 5-2v2c2.97-0.495 2.97-0.495 6-1v-7h6v-3h5c0.33-1.32 0.66-2.64 1-4-0.577-0.227-1.15-0.454-1.75-0.688-3.96-2.31-6.6-6.08-8.25-10.3-1.34-14.6-1.34-14.6 1.5-20.1 6.49-7.46 15.5-13.1 25.5-13.9 3.34-0.0654 6.66-0.0593 10 0-0.485-0.953-0.969-1.91-1.47-2.89-1.97-4.61-2.02-8.96-2.04-13.9-0.00999-0.926-0.02-1.85-0.0303-2.8-0.0151-1.95-0.0222-3.9-0.0217-5.85-0.00657-2.97-0.0611-5.93-0.118-8.89-0.0088-1.9-0.0148-3.8-0.0176-5.71-0.0216-0.877-0.0431-1.75-0.0653-2.66 0.0738-6.69 2.22-10.4 6.76-15.3 11.8-11.4 38.5-12.9 53-6z" fill="#4675CD"/>
<path transform="translate(672 452)" d="m0 0c1.2-0.0025 2.4-0.00501 3.64-0.00759 1.34 0.00228 2.67 0.00465 4.01 0.00709 1.42-0.00104 2.84-0.00252 4.26-0.0044 3.93-0.00391 7.86-0.00155 11.8 0.00178 4.27 0.00253 8.53-7.19e-4 12.8-0.00324 7.48-0.00362 15-0.0035 22.4-9.53e-4 11.1 0.00377 22.3 0.00185 33.4-0.00121 19.9-0.00527 39.7-0.00481 59.6-0.00192 17.4 0.00251 34.8 0.00317 52.2 0.00198 1.73-1.15e-4 1.73-1.15e-4 3.49-2.31e-4 4.68-3.11e-4 9.35-6.3e-4 14-9.6e-4 43.9-0.00306 87.8-2.82e-4 132 0.0051 39 0.00474 78 0.00432 117-4.61e-4 43.8-0.00535 87.6-0.00748 131-0.00439 4.67 3.21e-4 9.34 6.34e-4 14 9.43e-4 1.72 1.19e-4 1.72 1.19e-4 3.48 2.4e-4 17.4 0.00114 34.8-1.95e-4 52.1-0.00272 19.8-0.00286 39.5-0.00215 59.3 0.00328 11.1 0.00294 22.1 0.00312 33.2-6.46e-4 7.38-0.00224 14.8-8.57e-4 22.2 0.0035 4.21 0.00239 8.42 0.00318 12.6-4.06e-4 3.83-0.00322 7.66-0.00187 11.5 0.00318 2.03 0.00149 4.06-0.00194 6.09-0.00555 5.72 0.0119 11.2 0.0811 16.9 1.13v1c-1.26 0.248-2.52 0.495-3.81 0.75-2.59 0.672-4.02 1.12-6.12 2.81-1.61 3.69-1.82 7.45-2.06 11.4-3.25 1.19-3.25 1.19-7 2-2.31-1.31-2.31-1.31-4-3-0.66-0.33-1.32-0.66-2-1-0.33 0.66-0.66 1.32-1 2v-2c-5.28 1.32-10.6 2.64-16 4 0.66 0.66 1.32 1.32 2 2-4.84 1.51-8.26 0.366-13-1v5c-59.1 0.761-118 1.11-177 1.16-0.827 7.61e-4 -1.65 0.00152-2.51 0.0023-24.7 0.0224-49.4 0.0313-74 0.0374-9.33 0.00237-18.7 0.00598-28 0.0097-32.1 0.0128-64.2 0.0235-96.2 0.027-1.99 2.22e-4 -3.98 4.43e-4 -5.96 6.65e-4 -1.99 2.21e-4 -3.98 4.41e-4 -5.97 6.61e-4 -3.99 4.42e-4 -7.99 8.9e-4 -12 0.00134-0.99 1.09e-4 -1.98 2.19e-4 -3 3.31e-4 -32.4 0.00366-64.7 0.0197-97.1 0.0429-34.4 0.0246-68.9 0.0383-103 0.0395-3.77 1.71e-4 -7.54 3.87e-4 -11.3 6.34e-4 -1.39 8.37e-5 -1.39 8.37e-5 -2.81 1.69e-4 -14.9 0.00115-29.8 0.0122-44.7 0.0267-14.9 0.0143-29.8 0.0176-44.7 0.00956-8.85-0.00447-17.7-5.49e-4 -26.6 0.0152-5.9 0.00971-11.8 0.00861-17.7-0.00144-3.37-0.00542-6.73-0.00437-10.1 0.00651-3.62 0.011-7.23 0.0037-10.9-0.00839-1.58 0.0114-1.58 0.0114-3.19 0.023-1.44-0.0105-1.44-0.0105-2.91-0.0212-0.827 2.44e-4 -1.65 4.88e-4 -2.51 7.4e-4 -2.77-0.462-4.06-1.66-6.24-3.37-3.65-0.725-3.65-0.725-7-1v-1h9v-2c-0.66 0.33-1.32 0.66-2 1-1.71 0.07-3.42 0.0844-5.12 0.0625-0.91-0.00902-1.82-0.018-2.76-0.0273-1.05-0.0174-1.05-0.0174-2.12-0.0352 0.372-4.96 2.04-8.07 4.74-12.1 1.39-2.02 1.39-2.02 2.82-4.84 1.44-2.06 1.44-2.06 3.16-2.68 2.73-0.456 5.32-0.504 8.1-0.504z" fill="#426CC1"/>
<path transform="translate(1508,286)" d="m0 0h1c0.33 2.31 0.66 4.62 1 7 1.49-0.495 1.49-0.495 3-1 0.33 2.64 0.66 5.28 1 8 0.99 0.33 1.98 0.66 3 1 0.33 0.99 0.66 1.98 1 3 0.66-0.99 1.32-1.98 2-3 0.66 2.64 1.32 5.28 2 8 0.66-0.99 1.32-1.98 2-3 3.5 5.57 5.27 9.66 5.12 16.3-0.018 1.07-0.0361 2.14-0.0547 3.24-0.0348 1.21-0.0348 1.21-0.0703 2.45h2c0.125 7.63 0.125 7.63-1 11 0.66 0.33 1.32 0.66 2 1 0.0627 16.4-0.0876 32.8-0.317 49.2-0.0398 2.87-0.0743 5.74-0.104 8.62-0.0372 3.54-0.0836 7.08-0.136 10.6-0.0269 1.95-0.0451 3.91-0.0629 5.86-0.132 8.05-0.943 15.8-2.38 23.7h-2c0.0454-0.919 0.0454-0.919 0.0918-1.86 1.12-23.7 1.01-47.4 0.908-71.1h-2c0.0611 1.95 0.0611 1.95 0.124 3.95 1.45 47.6 1.45 47.6-1.04 70.7-0.0865 2.37 0.299 4.08 0.914 6.35v4c-0.99-0.33-1.98-0.66-3-1v-4h-2c0.195 0.715 0.389 1.43 0.59 2.17 0.466 3.22-0.00547 5.08-1.03 8.14-0.287 0.883-0.575 1.77-0.871 2.68-0.228 0.664-0.456 1.33-0.691 2.01h-2c-0.289 0.763-0.577 1.53-0.875 2.31-1.12 2.69-1.12 2.69-3.12 5.69h-2v3c-1.94 2.4-2.99 3-6 4-1.01 0.994-2 2-3 3-1.74 1.23-3.52 2.41-5.31 3.56-0.924 0.599-1.85 1.2-2.8 1.82-2.93 1.65-5.67 2.65-8.89 3.62-1.44 0.553-1.44 0.553-2.91 1.12-3.61 1.03-6.71 1.08-10.5 1.01-1.25-0.018-2.49-0.0361-3.77-0.0547-0.941-0.0232-1.88-0.0464-2.85-0.0703-0.33 0.99-0.66 1.98-1 3-1.09-0.0206-2.19-0.0412-3.31-0.0625-3.63-0.123-3.63-0.123-6.69 1.06h-4c-1.73 3.37e-4 -3.47 7.27e-4 -5.2 0.00115-1.06 2.56e-4 -2.12 5.12e-4 -3.21 7.76e-4 -1.17 2.86e-4 -2.33 5.72e-4 -3.54 8.66e-4 -2.59 6.24e-4 -5.18 0.00125-7.77 0.00187-0.689 1.66e-4 -1.38 3.32e-4 -2.09 5.03e-4 -62.8 0.0151-126 0.0288-188 0.0372-1.03 1.38e-4 -2.07 2.76e-4 -3.13 4.18e-4 -22.5 0.00299-44.9 0.00576-67.4 0.0083-11 0.00125-22 0.00254-33 0.00387-1.64 1.96e-4 -1.64 1.96e-4 -3.32 3.96e-4 -35.6 0.00427-71.1 0.0118-107 0.021-36.5 0.00942-73.1 0.0156-110 0.0176-5.15 2.88e-4 -10.3 6.14e-4 -15.5 9.62e-4 -1.01 6.74e-5 -2.03 1.35e-4 -3.07 2.04e-4 -16.4 0.00118-32.7 0.00583-49.1 0.0118-16.4 0.00587-32.9 0.00814-49.3 0.00667-9.77-7.64e-4 -19.5 0.00129-29.3 0.0073-6.52 0.00373-13 0.00388-19.5 0.00103-3.72-0.00152-7.44-0.0014-11.2 0.00305-3.99 0.00475-7.99 0.00188-12-0.00184-1.17 0.00263-2.35 0.00525-3.56 0.00796-1.58-0.00337-1.58-0.00337-3.19-0.00681-1.37 2.34e-4 -1.37 2.34e-4 -2.77 4.73e-4 -2.05-0.125-2.05-0.125-3.05-1.12-1.66-0.16-3.32-0.252-4.98-0.316-1.07-0.042-2.14-0.084-3.24-0.127-1.17-0.0392-2.33-0.0785-3.53-0.119-1.19-0.0425-2.38-0.0849-3.6-0.129-13.5-0.439-27.1-0.405-40.6-0.309v-2c-0.908 0.165-1.82 0.33-2.75 0.5-3.25 0.5-3.25 0.5-7.25 0.5v2h-4c-0.33-0.99-0.66-1.98-1-3-0.224-0.646-0.448-1.29-0.679-1.96-0.41-2.61 0.158-3.5 1.55-5.71 0.409-0.664 0.819-1.33 1.24-2.01 0.438-0.682 0.875-1.36 1.33-2.07 0.434-0.697 0.868-1.39 1.31-2.11 1.07-1.72 2.16-3.43 3.25-5.14 0.611 0.163 1.22 0.326 1.85 0.494 2.37 0.559 4.46 0.604 6.9 0.569 0.799-0.00902 1.6-0.018 2.42-0.0273l1.83-0.0352v6c63.8 0.0172 128 0.0331 191 0.0423 1.43 2.07e-4 1.43 2.07e-4 2.88 4.18e-4 20.7 3e-3 41.3 0.00577 62 0.0083 10.1 0.00125 20.3 0.00254 30.4 0.00387 1.01 1.31e-4 2.02 2.62e-4 3.06 3.96e-4 32.5 0.00423 64.9 0.0117 97.4 0.021 33.5 0.00952 67 0.0156 100 0.0176 4.77 2.88e-4 9.55 6.14e-4 14.3 9.62e-4 0.939 6.74e-5 1.88 1.35e-4 2.85 2.04e-4 14 0.00109 27.9 0.00507 41.9 0.0106 21 0.00825 42.1 0.012 63.1 0.0078 0.826-1.56e-4 1.65-3.13e-4 2.5-4.74e-4 58-0.0119 116-0.34 174-1.11 0.33-1.32 0.66-2.64 1-4 2.97 0.33 5.94 0.66 9 1v-2c15.4-4.89 15.4-4.89 23-4 0.66 0.99 1.32 1.98 2 3 2.97-0.99 2.97-0.99 6-2 0.049-0.638 0.098-1.28 0.148-1.93 0.0748-0.826 0.15-1.65 0.227-2.5 0.104-1.24 0.104-1.24 0.211-2.5 0.137-0.682 0.273-1.36 0.414-2.07 0.66-0.33 1.32-0.66 2-1 0.66-0.99 1.32-1.98 2-3 0.99-0.33 1.98-0.66 3-1-0.66-0.66-1.32-1.32-2-2h9c-0.243-1.38-0.243-1.38-0.492-2.79-0.735-5.18-0.648-10.4-0.637-15.6-0.00175-1.13-0.0035-2.26-0.00531-3.42-0.0044-3.73-0.00148-7.46 0.00189-11.2-6.75e-4 -2.62-0.00165-5.25-0.0029-7.87-0.00182-5.52 5.71e-4 -11 0.00534-16.5 0.00478-5.6 0.00487-11.2 0-16.8-0.0453-53.5-0.0453-53.5 0.576-73.9 0.0387-1.29 0.0775-2.59 0.117-3.92 0.172-4.8 0.391-9.32 1.44-14z" fill="#4273C9"/>
<path transform="translate(1521,268)" d="m0 0h2c2.45 2.6 3.89 4.65 5 8.06 1.11 3.27 2.56 4.58 5 6.94v3h2c0.166 1.1 0.166 1.1 0.335 2.23 0.506 3.34 1.02 6.68 1.54 10 0.174 1.16 0.348 2.32 0.527 3.51 0.174 1.12 0.348 2.23 0.527 3.38 0.157 1.03 0.314 2.05 0.476 3.11 0.558 2.58 1.42 4.41 2.59 6.75 0.0777 2.33 0.0897 4.67 0 7h3c2.05 6.75 2.28 13 2.23 20-6.87e-4 1.71-6.87e-4 1.71-0.00139 3.45-0.00301 2.4-0.0109 4.8-0.0233 7.2-0.0182 3.65-0.0205 7.29-0.0203 10.9-0.00492 2.34-0.0107 4.69-0.0176 7.03-0.00111 1.08-0.00223 2.15-0.00337 3.26-0.0366 5.94-0.337 11.8-0.93 17.7-0.297 3.09-0.426 6.18-0.516 9.28-0.0561 1.75-0.0561 1.75-0.113 3.53-0.0711 2.41-0.141 4.81-0.211 7.22-0.0561 1.73-0.0561 1.73-0.113 3.5-0.0454 1.56-0.0454 1.56-0.0918 3.15-0.165 2.4-0.511 4.46-1.19 6.76h-2v25h2v12h-3c0.155 1.11 0.155 1.11 0.312 2.25-0.312 2.75-0.312 2.75-2.81 5.06-0.825 0.557-1.65 1.11-2.5 1.69 0.33-1.65 0.66-3.3 1-5-1.84-0.772-1.84-0.772-4-1-2.18 1.53-2.89 2.64-3.69 5.19-0.103 0.598-0.206 1.2-0.312 1.81h-2c0.0116 0.782 0.0232 1.56 0.0352 2.37 0.0135 1.52 0.0135 1.52 0.0273 3.07 0.0116 1.01 0.0232 2.02 0.0352 3.06-0.0977 2.5-0.0977 2.5-1.1 3.5-0.233 1.68-0.413 3.37-0.562 5.06-0.0838 0.919-0.168 1.84-0.254 2.79-0.0606 0.71-0.121 1.42-0.184 2.15h2c-0.0309-1.7-0.0309-1.7-0.0625-3.44 0.0625-3.56 0.0625-3.56 1.06-4.56 0.537-3.36 0.966-6.72 1.4-10.1 0.197-0.959 0.394-1.92 0.598-2.91 0.66-0.33 1.32-0.66 2-1 0.0269 1.81 0.0463 3.62 0.0625 5.44 0.0116 1.01 0.0232 2.02 0.0352 3.06-0.0977 2.5-0.0977 2.5-1.1 3.5-0.233 1.68-0.413 3.37-0.562 5.06-0.0838 0.919-0.168 1.84-0.254 2.79-0.0606 0.71-0.121 1.42-0.184 2.15h-2c-0.33 0.99-0.66 1.98-1 3h-5v4c-1.26 0.0561-1.26 0.0561-2.55 0.113l-3.32 0.199c-1.64 0.087-1.64 0.087-3.3 0.176-0.931 0.169-1.86 0.338-2.82 0.512-0.66 0.99-1.32 1.98-2 3h-4v2c-1.01 0.049-2.03 0.098-3.07 0.148-1.35 0.0751-2.7 0.151-4.05 0.227-0.998 0.0464-0.998 0.0464-2.02 0.0938-4.28 0.252-7.83 1.11-11.9 2.53-2.39 0.326-4.74 0.495-7.14 0.656-0.612 0.113-1.22 0.227-1.86 0.344-0.33 0.66-0.66 1.32-1 2-5.94 0.33-11.9 0.66-18 1-0.33 0.66-0.66 1.32-1 2v-2h-4c-0.33 0.66-0.66 1.32-1 2v-3c-4.95 0.33-9.9 0.66-15 1v2c-18.8 2.48-18.8 2.48-28 1v-4c-0.609 1.56e-4 -1.22 3.12e-4 -1.84 4.73e-4 -66.3 0.0169-133 0.0327-199 0.0419-0.99 1.38e-4 -1.98 2.76e-4 -3 4.18e-4 -21.5 0.00299-43 0.00576-64.6 0.0083-10.6 0.00125-21.1 0.00254-31.7 0.00387-1.05 1.31e-4 -2.1 2.62e-4 -3.18 3.96e-4 -34 0.00426-68.1 0.0118-102 0.021-35 0.00944-70 0.0156-105 0.0176-4.94 2.88e-4 -9.88 6.14e-4 -14.8 9.62e-4 -1.46 1.01e-4 -1.46 1.01e-4 -2.95 2.04e-4 -15.7 0.00118-31.3 0.00582-47 0.0118-15.7 0.00589-31.5 0.00813-47.2 0.00667-9.35-7.6e-4 -18.7 0.00126-28 0.0073-6.25 0.00376-12.5 0.00386-18.8 0.00103-3.56-0.00151-7.12-0.00146-10.7 0.00305-36.7 0.0435-36.7 0.0435-45.4-3.12v-1c6.93-0.33 13.9-0.66 21-1-2.76-0.124-5.53-0.248-8.38-0.375-6.72-0.337-13.1-1.04-19.6-2.62 0.33-0.99 0.66-1.98 1-3 69.3-0.0171 139-0.033 208-0.0423 1.54-2.07e-4 1.54-2.07e-4 3.11-4.18e-4 22.3-0.00299 44.6-0.00576 66.9-0.0083 10.9-0.00125 21.9-0.00254 32.8-0.00387 1.63-1.96e-4 1.63-1.96e-4 3.3-3.96e-4 35.3-0.00426 70.6-0.0118 106-0.021 36.3-0.00943 72.5-0.0156 109-0.0176 5.12-2.88e-4 10.2-6.14e-4 15.4-9.62e-4 1.01-6.74e-5 2.02-1.35e-4 3.05-2.04e-4 16.2-0.00118 32.5-0.00582 48.7-0.0118 16.3-0.00589 32.6-0.00814 48.9-0.00667 9.69 7.61e-4 19.4-0.00127 29.1-0.0073 6.47-0.00375 12.9-0.00387 19.4-0.00103 3.69 0.00151 7.38 0.00145 11.1-0.00305 3.98-0.00481 7.95-0.00185 11.9 0.00184 1.14-0.00263 2.28-0.00525 3.46-0.00796 6.05 0.0127 12 0.279 18 0.904 2.61 0.262 5.2 0.356 7.83 0.36 0.898 0.00129 1.8 0.00258 2.72 0.00391 1.34-0.0058 1.34-0.0058 2.71-0.0117 0.927 0.00387 1.85 0.00773 2.81 0.0117 0.888-0.00129 1.78-0.00258 2.69-0.00391 1.19-0.00169 1.19-0.00169 2.41-0.00342 2.29-0.0513 2.29-0.0513 5.09-1.13 2.27-0.0721 4.55-0.0839 6.82-0.0625 0.659 0.00379 1.32 0.00757 2 0.0115 2.1 0.0122 4.2 0.0308 6.31 0.051 2.77 0.0265 5.55 0.0465 8.32 0.0625 1.85 0.0174 1.85 0.0174 3.73 0.0352 2.72 0.227 2.72 0.227 3.82-1.1 2.33-0.0409 4.67-0.0424 7 0v-2c0.99 0.33 1.98 0.66 3 1 0.908-0.454 1.82-0.908 2.75-1.38 3.52-1.76 6.38-2.07 10.2-2.62 2.01-0.984 4.01-1.98 6-3h4c0.33-1.32 0.66-2.64 1-4h3c0.0412-0.619 0.0825-1.24 0.125-1.88 0.289-0.701 0.577-1.4 0.875-2.12 1.42-0.433 1.42-0.433 2.88-0.875 3.38-0.836 3.38-0.836 4.81-4.06 0.65-1.52 0.65-1.52 1.31-3.06 1.5-1.88 1.5-1.88 3-3h3c1.11-2.07 1.97-3.89 2.5-6.19 0.165-0.598 0.33-1.2 0.5-1.81 0.66-0.33 1.32-0.66 2-1 0.747-2.33 1.39-4.63 2-7 0.351-1.15 0.701-2.31 1.06-3.5 0.937-3.5 1.5-6.91 1.94-10.5 0.33 1.32 0.66 2.64 1 4h2v-6c-0.99-0.33-1.98-0.66-3-1-0.253-6.44-0.253-6.44 0.969-9.14 1.48-4.1 1.5-8.03 1.65-12.4 0.0375-0.988 0.0751-1.98 0.114-2.99 0.472-14.2 0.419-28.3 0.399-42.5-0.00576-4.1-0.00236-8.19 0.00357-12.3 0.00362-3.2 0.00246-6.4-1.28e-4 -9.59-6.6e-4 -1.51 1.28e-4 -3.02 0.00248-4.53 0.0735-14.5 0.0735-14.5-3.14-28.6-0.592-2.78-1.05-5.57-1.5-8.38-0.713-4.36-1.47-8.64-2.59-12.9-0.906-3.71-0.906-3.71-0.906-7.71-0.66-0.33-1.32-0.66-2-1-2-3-2-3-2-6h-3c-2.25-4.5-2.17-8.08-2-13 2.47 1.49 2.47 1.49 5 3-0.66-1.65-1.32-3.3-2-5z" fill="#4675CF"/>
<path transform="translate(83,300)" d="m0 0c2 2 2 2 2 4 0.557-0.206 1.11-0.413 1.69-0.625 2.97-0.481 4.59 0.477 7.31 1.62 0.66-0.33 1.32-0.66 2-1 0.0271 2.25 0.0464 4.5 0.0625 6.75 0.0116 1.25 0.0232 2.51 0.0352 3.8-0.0977 3.45-0.0977 3.45-0.591 5.27-0.668 2.88-0.672 5.6-0.712 8.55-0.0199 1.3-0.0399 2.6-0.0604 3.93-0.017 1.42-0.0339 2.85-0.0506 4.27-0.0206 1.49-0.0416 2.97-0.063 4.46-0.044 3.14-0.0849 6.27-0.123 9.41-0.0481 3.92-0.102 7.83-0.158 11.8-0.683 38.9-0.683 38.9 0.161 77.8 0.0477 1.19 0.0954 2.38 0.145 3.61 0.113 2.8 0.233 5.59 0.355 8.39 6.27 0.33 12.5 0.66 19 1 0.495 2.48 0.495 2.48 1 5-0.804 0.351-1.61 0.701-2.44 1.06-2.95 1.79-2.95 1.79-3.38 5.62-0.0619 1.09-0.124 2.19-0.188 3.31 0.66 0.33 1.32 0.66 2 1 0.33 0.99 0.66 1.98 1 3 2.02 0.733 2.02 0.733 4 1-0.33 1.65-0.66 3.3-1 5 0.99-0.33 1.98-0.66 3-1 1.33 0.667 2.67 1.33 4 2 1.67 0.0387 3.33 0.045 5 0 0.33 0.33 0.66 0.66 1 1 13.3 3.93 28.3 3.18 42 3-0.66 0.33-1.32 0.66-2 1 1.98 0.66 3.96 1.32 6 2v-2h6v1c0.808 0.00174 1.62 0.00347 2.45 0.00526 48 0.103 95.9 0.211 144 0.326 5.77 0.0138 11.5 0.0275 17.3 0.0412 1.72 0.00409 1.72 0.00409 3.48 0.00827 18.6 0.044 37.1 0.0847 55.7 0.124 19.1 0.0406 38.1 0.0847 57.2 0.132 11.7 0.0291 23.5 0.0555 35.2 0.0783 8.07 0.0159 16.1 0.0354 24.2 0.0575 4.65 0.0126 9.29 0.0238 13.9 0.0308 17 0.0263 34 0.0547 51 0.976 7.69 0.407 15.4 0.329 23.1 0.284 1.53-0.00505 3.07-0.0096 4.6-0.0137 3.65-0.0107 7.31-0.0278 11-0.0488 0.66 1.65 1.32 3.3 2 5 0.771 0.0374 1.54 0.0748 2.34 0.113l3.04 0.199c0.998 0.058 2 0.116 3.02 0.176 0.859 0.169 1.72 0.338 2.6 0.512 0.66 0.99 1.32 1.98 2 3-0.924 1.67-1.86 3.34-2.81 5-0.522 0.928-1.04 1.86-1.58 2.81l-1.61 2.19h-3v2c-1.44 0.0271-2.87 0.0465-4.31 0.0625-0.801 0.0116-1.6 0.0232-2.43 0.0352-2.26-0.0977-2.26-0.0977-5.26-1.1v-5h-18v-2c-0.578 0.00444-1.16 0.00888-1.75 0.0135-6.02 0.0443-12 0.0744-18.1 0.0964-2.25 0.0101-4.49 0.0237-6.74 0.041-3.23 0.0243-6.46 0.0356-9.69 0.0444-1 0.0103-2 0.0206-3.04 0.0313-0.941 1.51e-4 -1.88 3.02e-4 -2.85 4.58e-4 -0.824 0.00444-1.65 0.00888-2.5 0.0135-2.74-0.276-4.85-1.2-7.39-2.24-2.24 0.287-2.24 0.287-4 1v-2h-2v2h-3v-2c-32.9 0.105-65.8 0.214-98.7 0.331-3.88 0.0138-7.77 0.0275-11.6 0.0412-0.773 0.00273-1.55 0.00546-2.34 0.00827-12.5 0.0441-25 0.0847-37.6 0.124-12.8 0.0405-25.7 0.0846-38.5 0.132-7.93 0.0293-15.9 0.0556-23.8 0.0783-6.08 0.0177-12.2 0.0405-18.2 0.0653-2.49 0.00936-4.99 0.017-7.48 0.0229-3.4 0.00828-6.8 0.0226-10.2 0.0384-1.49 0.00147-1.49 0.00147-3 0.00296-5.39 0.0323-10.4 0.335-15.7 1.71-2.06 0.486-3.88 0.557-5.99 0.541-0.754-0.00322-1.51-0.00645-2.29-0.00977-0.777-0.00838-1.55-0.0168-2.36-0.0254-0.793-0.00451-1.59-0.00902-2.4-0.0137-1.95-0.0117-3.9-0.0297-5.85-0.0488v-2c-4.32-0.0496-8.65-0.0858-13-0.11-1.47-0.01-2.94-0.0237-4.41-0.041-2.12-0.0244-4.23-0.0356-6.35-0.0444-1.91-0.0157-1.91-0.0157-3.86-0.0317-3.3 0.219-5.44 0.868-8.41 2.23-2.24 0.195-2.24 0.195-4.31 0.125-1.22-0.0412-2.43-0.0825-3.69-0.125v-2c-0.664 0.0116-1.33 0.0232-2.01 0.0352-8.77 0.0896-8.77 0.0896-13-1.04v3h-2v-3h-3v3h-2v-3c-14-1.18-28-1.1-42-1 2-2 2-2 5.81-2.23 1.64 3.17e-4 3.28 0.0117 4.92 0.0317 0.863 0.00283 1.73 0.00566 2.61 0.00858 2.76 0.0112 5.52 0.0363 8.28 0.0617 1.87 0.01 3.74 0.0192 5.61 0.0273 4.59 0.0221 9.18 0.0566 13.8 0.0977 0.33-0.66 0.66-1.32 1-2-1.91 0.0157-1.91 0.0157-3.85 0.0317-4.76 0.0365-9.53 0.0593-14.3 0.0781-2.05 0.00999-4.1 0.0236-6.16 0.041-25.9 0.214-25.9 0.214-38.5-4.28-1.01-0.353-2.01-0.706-3.05-1.07-0.727-0.266-1.45-0.531-2.2-0.805v-2c-1.64-0.155-1.64-0.155-3.31-0.312-3.71-0.692-4.41-0.959-6.69-3.69-0.99-0.33-1.98-0.66-3-1-1.67-1.67-3.33-3.33-5-5-4.09-3.36-7.83-5.61-13-7v-2h-2v-2h-2c-5.71-5.14-5.71-5.14-7-9-0.125-3.25-0.125-3.25 0-6h-2c-4.76-14-3.14-29.2-1.5-43.6 0.143-1.29 0.286-2.58 0.434-3.91 0.351-3.16 0.706-6.31 1.07-9.46h2c-0.33-0.99-0.66-1.98-1-3l-1 2h-2c0.0348 0.909 0.0696 1.82 0.105 2.75 0.205 9.52-0.896 18-3.11 27.2h-1c-0.25-11.2 0.343-21.9 2-33 0.146-1.27 0.291-2.53 0.441-3.84 0.559-3.16 0.559-3.16 2.56-5.16 0.368-1.93 0.368-1.93 0.414-4.13 0.058-1.21 0.058-1.21 0.117-2.44 0.0464-1.26 0.0464-1.26 0.0938-2.55 0.058-1.27 0.058-1.27 0.117-2.57 0.0944-2.1 0.177-4.2 0.258-6.3h-2v-17c-0.0464-0.937-0.0928-1.87-0.141-2.84-0.297-8.4-0.297-8.4 2.02-12.4 2.12-1.75 2.12-1.75 4.12-1.75v-4h-3c-1.57-3.15-1.27-6.49-1.31-9.94-0.029-0.729-0.058-1.46-0.0879-2.21-0.0635-5.33-0.0635-5.33 2.23-7.92 2.17-0.934 2.17-0.934 5.17 0.0664 0.66-0.66 1.32-1.32 2-2z" fill="#F9FCFC"/>
<path transform="translate(160 453)" d="m0 0c0.865-0.00231 1.73-0.00462 2.62-0.00699 2.91-0.00531 5.83 0.0037 8.74 0.0126 2.1-8.72e-4 4.21-0.00262 6.31-0.00518 5.79-0.00448 11.6 0.00354 17.4 0.0136 6.24 0.00862 12.5 0.00572 18.7 0.0042 10.8-0.00105 21.6 0.00517 32.5 0.0165 11.3 0.0118 22.7 0.0195 34 0.0217 1.06 2.06e-4 1.06 2.06e-4 2.14 4.17e-4 3.58 6.77e-4 7.16 0.00128 10.7 0.00185 25.4 0.0042 50.8 0.0177 76.1 0.0366 24.7 0.0184 49.3 0.0325 74 0.041 0.76 2.63e-4 1.52 5.26e-4 2.3 7.97e-4 7.63 0.00264 15.3 0.00519 22.9 0.00768 15.5 0.00507 31.1 0.0107 46.6 0.0167 1.07 4.12e-4 1.07 4.12e-4 2.17 8.32e-4 47.7 0.0184 95.5 0.0501 143 0.0839-1.05 8.66-1.05 8.66-5 12-2.8 0.418-5.14 0.238-8 0 0.33 0.66 0.66 1.32 1 2-3.37 2.21-6.02 3.43-10 4-1.26 0.186-2.52 0.371-3.81 0.562-1.58 0.217-1.58 0.217-3.19 0.438h6c0.33 0.66 0.66 1.32 1 2h-19v-1c-11.2-0.826-22.3-1.15-33.5-1.16-1.7-0.00458-3.41-0.00958-5.11-0.015-4.64-0.0134-9.28-0.021-13.9-0.0274-5.02-0.00807-10-0.0217-15.1-0.0347-8.68-0.0217-17.4-0.0399-26-0.0556-12.6-0.0228-25.1-0.0509-37.7-0.0803-20.4-0.0476-40.7-0.0909-61.1-0.131-19.8-0.0394-39.6-0.0808-59.3-0.125-1.22-0.00272-2.44-0.00545-3.7-0.00826-6.12-0.0137-12.2-0.0274-18.4-0.0411-50.7-0.114-101-0.221-152-0.323v-2c-16.3 0.402-16.3 0.402-32.3 2.59-4.86 0.75-9.75 0.567-14.7 0.41-0.977-6.05-0.977-6.05-1-8 0.66-0.66 1.32-1.32 2-2-0.323-3.6-0.323-3.6-1-7 4.47-2.24 8.67-2.28 13.6-2.25z" fill="#EAEBED"/>
<path transform="translate(119 453)" d="m0 0c1.47 3.17e-4 2.94 0.0116 4.41 0.0317 0.774 0.00283 1.55 0.00566 2.35 0.00858 2.48 0.0112 4.95 0.0363 7.43 0.0617 1.68 0.01 3.35 0.0192 5.03 0.0273 4.11 0.0221 8.23 0.0566 12.3 0.0977l-4 2c0.495 3.96 0.495 3.96 1 8-0.66 0.33-1.32 0.66-2 1 0.495 3.46 0.495 3.46 1 7 5.56 0.197 10.8 0.14 16.2-1 9.75-1.84 19.9-1.16 29.8-1v2c0.917-0.0301 1.83-0.0602 2.78-0.0912 23.5-0.752 47-1.04 70.5-0.955 4.62 0.015 9.23 0.0234 13.8 0.0328 8.98 0.0193 18 0.0443 26.9 0.0716 7.3 0.022 14.6 0.0418 21.9 0.0601 1.57 0.00393 1.57 0.00393 3.17 0.00795 2.13 0.00532 4.25 0.0106 6.38 0.0159 19.8 0.0497 39.6 0.106 59.5 0.165 17 0.0501 34 0.0948 51 0.136 19.8 0.0475 39.6 0.0981 59.4 0.154 2.11 0.00593 4.22 0.0119 6.33 0.0178 1.56 0.00438 1.56 0.00438 3.15 0.00884 7.3 0.0203 14.6 0.0384 21.9 0.0557 8.88 0.0211 17.8 0.0456 26.6 0.0746 4.52 0.0147 9.05 0.0279 13.6 0.0368 4.14 0.00823 8.29 0.021 12.4 0.0373 1.5 0.0051 2.99 0.00858 4.49 0.0102 7.78 0.00955 15.5 0.164 23.2 1.16v1h6c-1.32-0.66-2.64-1.32-4-2 0.58 0.00113 1.16 0.00226 1.76 0.00342 2.64-0.0122 5.29-0.0699 7.93-0.128 1.37 0.00387 1.37 0.00387 2.76 0.00781 4.96-0.00844 4.96-0.00844 9.16-2.26 1.16-1.52 2.28-3.07 3.39-4.62 2.24-0.586 2.24-0.586 4.31-0.375 1.22 0.124 2.43 0.248 3.69 0.375-1.58 5.71-4.39 10.4-7.38 15.5-0.482 0.829-0.964 1.66-1.46 2.51-2.59 4.43-5.26 8.76-8.16 13-4.29-0.99-8.58-1.98-13-3v-2h-5c0.99-0.66 1.98-1.32 3-2-1.74 0.00786-1.74 0.00786-3.51 0.0159-4.38 0.0184-8.75 0.0297-13.1 0.0391-1.88 0.00497-3.76 0.0117-5.64 0.0205-2.73 0.0124-5.46 0.0179-8.19 0.0222-0.814 0.00516-1.63 0.0103-2.47 0.0156-5.15 4.74e-4 -10.2-0.247-15.4-0.611-8.44-0.557-16.9-0.649-25.3-0.647-1.61-0.00314-3.22-0.00672-4.83-0.0107-4.38-0.00959-8.76-0.0132-13.1-0.0158-4.74-0.00393-9.48-0.0136-14.2-0.0226-8.2-0.0149-16.4-0.0264-24.6-0.0359-11.9-0.0139-23.7-0.0351-35.6-0.0584-19.3-0.0378-38.5-0.0728-57.8-0.105-1.15-0.0019-2.3-0.0038-3.49-0.00576-16.4-0.0269-32.7-0.0508-49.1-0.0734-1.73-0.0024-1.73-0.0024-3.5-0.00484-1.15-0.00159-2.3-0.00319-3.49-0.00483-19.2-0.0267-38.4-0.0611-57.6-0.102-11.8-0.0248-23.7-0.0431-35.5-0.0532-8.1-0.00738-16.2-0.0219-24.3-0.0421-4.67-0.0114-9.35-0.0195-14-0.019-4.28 4.26e-4 -8.55-0.00823-12.8-0.0242-1.55-0.00417-3.1-0.00494-4.65-0.00204-2.1 0.00345-4.2-0.00527-6.3-0.0171-1.17-0.00174-2.34-0.00347-3.54-0.00526-2.87-0.246-4.54-0.754-6.97-2.25v2h-6v-2c-0.83 0.00786-0.83 0.00786-1.68 0.0159-25.8 0.212-25.8 0.212-38.3-3.02-0.33-0.33-0.66-0.66-1-1-0.928 0.0206-1.86 0.0412-2.81 0.0625-3.17-0.0622-4.51-0.531-7.19-2.06h-2c-0.562-1.94-0.562-1.94-1-4 0.33-0.33 0.66-0.66 1-1-0.99-0.33-1.98-0.66-3-1v-2c-0.99-0.33-1.98-0.66-3-1-0.756-2.72-1.17-4.46-0.312-7.19 1.54-2.12 2.9-2.85 5.31-3.81v-3c2-2 2-2 5.44-2.23z" fill="#F5F6F8"/>
<path transform="translate(1399,112)" d="m0 0c0.882 0.414 1.76 0.828 2.67 1.25 6.06 3.22 9.09 6.21 11.3 12.7 0.575 3.28 0.696 6.49 0.75 9.81 0.0401 1.36 0.0401 1.36 0.0811 2.75 0.0503 1.88 0.0909 3.76 0.122 5.64 0.0455 2.72 0.123 5.43 0.203 8.15 0.0338 1.68 0.0652 3.35 0.0938 5.03 0.0216 0.765 0.0432 1.53 0.0654 2.32 0.0347 6.03-1.12 10.6-4.97 15.4-9.27 8.11-20.6 9.83-32.3 11.9 0.495 1.01 0.99 2.02 1.5 3.06 2.6 7.06 3.14 15.6 0.434 22.7-4.99 8.12-12.7 11.7-21.5 14.4-14 3.29-27.7 2-40.6-4.58-4.92-3.05-8.7-7.18-10.8-12.6-1.34-14.6-1.34-14.6 1.5-20.1 6.49-7.46 15.5-13.1 25.5-13.9 3.34-0.0654 6.66-0.0593 10 0-0.485-0.953-0.969-1.91-1.47-2.89-1.97-4.61-2.02-8.96-2.04-13.9-0.00999-0.926-0.02-1.85-0.0303-2.8-0.0151-1.95-0.0222-3.9-0.0217-5.85-0.00657-2.97-0.0611-5.93-0.118-8.89-0.0088-1.9-0.0148-3.8-0.0176-5.71-0.0323-1.32-0.0323-1.32-0.0653-2.66 0.0738-6.69 2.22-10.4 6.76-15.3 11.8-11.4 38.5-12.9 53-6z" fill="#F9CA7D"/>
<path transform="translate(147 385)" d="m0 0c1.75-0.0027 3.49-0.00658 5.24-0.0116 3.65-0.00588 7.29 0.00261 10.9 0.0214 4.67 0.0228 9.33 0.00963 14-0.0143 3.6-0.0145 7.2-0.00984 10.8 5.11e-4 1.72 0.00266 3.44-5.79e-4 5.16-0.00992 2.41-0.0102 4.81 0.00538 7.21 0.0276 0.705-0.0081 1.41-0.0162 2.14-0.0245 4.99 0.085 7.81 1.44 11.7 4.54 3.4 4.75 2.73 11.4 3 17 0.0541 0.933 0.108 1.87 0.164 2.83 0.186 5.53-0.323 9.37-3.16 14.2-4.15 3.28-8 3.43-13.1 3.4-1.2 0.0103-1.2 0.0103-2.43 0.0208-2.64 0.0183-5.28 0.0144-7.92 0.00874-1.84 0.00456-3.68 0.00987-5.52 0.0159-3.85 0.00893-7.7 0.00651-11.6-0.00343-4.93-0.0115-9.86 0.00872-14.8 0.0379-3.8 0.0184-7.6 0.0181-11.4 0.0124-1.82-1.53e-4 -3.64 0.00589-5.45 0.0183-2.54 0.0149-5.09 0.00423-7.63-0.0129-1.12 0.0145-1.12 0.0145-2.26 0.0293-5.11-0.0718-8.03-1.29-12-4.53-2.81-5.03-2.33-10.3-2.31-15.9-0.0161-0.976-0.0322-1.95-0.0488-2.96-0.00661-9.75-0.00661-9.75 3.36-14.1 7.8-5.51 16.7-4.58 25.9-4.53z" fill="#4E0F73"/>
<path transform="translate(1553 720)" d="m0 0c7.46 6.26 12.1 13.5 13 23.3 0.289 10.3-2.09 18.4-9.16 26.1-6.83 6.69-13.7 8.95-23.2 9.34-9.82-0.374-17.7-3.82-24.4-11-1.22-1.43-2.36-2.92-3.5-4.42-0.514-0.625-1.03-1.25-1.56-1.89-3.96-5.79-3.86-13.6-3.04-20.4 1.75-7.99 6.36-15.5 12.6-20.7 12.9-7.97 26.4-9.52 39.3-0.391z" fill="#4E0E73"/>
<path transform="translate(1479,141)" d="m0 0c0.762 0.361 1.52 0.722 2.31 1.09 5.27 2.86 7.98 6.15 9.69 11.9 1.64 8.1 1.59 16.5-2.62 23.8-11.3 10.4-25.4 11.9-40.2 11.6-9.57-0.489-18.8-4.27-25.9-10.7-3.8-4.94-4.83-9.5-4.73-15.6 0.00757-0.71 0.0151-1.42 0.0229-2.15 0.203-6.4 1.26-9.79 5.84-14.3 4.7-4.16 9.36-6.78 15.4-8.21 0.987-0.24 1.97-0.48 2.99-0.727 12.7-2.62 25.4-2.31 37.1 3.35z" fill="#FACB7D"/>
<path transform="translate(1458,203)" d="m0 0c5.3 6.86 5.08 15.5 4.94 23.8-1.79 6.2-5.46 10.7-10.9 14.1-11.5 5.68-26.6 7.1-39.2 4.56-17.7-6.48-17.7-6.48-21.9-13.2-2.83-7.9-2.81-16.3 0.145-24.2 4.25-7.75 12.6-11.3 20.7-13.9 15.6-3.31 34-1.97 46.3 8.85z" fill="#FACB7D"/>
<path transform="translate(779,256)" d="m0 0h9v1h-5v2h20v-2c-1.32-0.33-2.64-0.66-4-1 8.73-0.0974 17.3-0.167 26 1v2h6v-2h6v2h9v-2h7v2h9v-2h43v2c1.01-0.0597 2.02-0.119 3.06-0.181 36.2-2.08 72.3-2.07 108-1.99 8.7 0.0187 17.4 0.0243 26.1 0.0293 15.6 0.00917 31.1 0.0265 46.7 0.05 0.923 0.00139 1.85 0.00279 2.8 0.00422 0.924 0.0014 1.85 0.00279 2.8 0.00423 13.1 0.0198 26.2 0.0376 39.3 0.0531 0.923 0.00109 1.85 0.00218 2.8 0.00331 15.5 0.0182 31 0.0321 46.6 0.0439 8.65 0.00682 17.3 0.0162 26 0.0319 9.66 0.0175 19.3 0.0304 29 0.0372 1.13 9.15e-4 1.13 9.15e-4 2.28 0.00185 20.6 0.0149 41.3-0.134 61.9-0.817 0.783-0.0247 1.57-0.0494 2.37-0.0749 2.04-0.066 4.08-0.14 6.13-0.214 2.82 0.0222 2.82 0.0222 3.82 1.02 1.71 0.159 3.43 0.251 5.15 0.316 1.08 0.0421 2.16 0.0841 3.27 0.127 1.16 0.0392 2.32 0.0783 3.52 0.119 1.18 0.0417 2.35 0.0835 3.56 0.126 6.87 0.23 13.7 0.411 20.6 0.436 0.69 0.00459 1.38 0.00918 2.09 0.0139 4.68-0.0144 9.15-0.531 13.8-1.14 1.62-0.0824 3.25-0.131 4.88-0.125 1.11-0.00387 1.11-0.00387 2.24-0.00781 2.48 0.114 4.91 0.338 7.38 0.605 6.25 0.643 12.5 0.89 18.8 1.09 1.98 0.0637 1.98 0.0637 4 0.129 22.9 0.663 45.8 0.393 68.8 0.309v-2c10.2-2.4 20.9-0.026 30 5 1.37 2.17 1.37 2.17 2 4h3v2c1.98 0.66 3.96 1.32 6 2v3c-7.77-1.51-12.6-3.47-18.6-8.66-6.37-3.57-15.3-2.49-22.4-2.48-1.81-0.00426-1.81-0.00426-3.65-0.00861-3.34-0.00688-6.68-0.00934-10-0.00993-3.64-0.00173-7.27-0.00922-10.9-0.016-6.37-0.011-12.7-0.0184-19.1-0.0234-9.47-0.00741-18.9-0.0205-28.4-0.0347-15.9-0.0238-31.9-0.043-47.8-0.0596-15.8-0.0164-31.6-0.0349-47.3-0.0561-1.47-0.00198-1.47-0.00198-2.97-0.00399-4.98-0.0067-9.96-0.0134-14.9-0.0202-35.3-0.0478-70.6-0.091-106-0.131-34.3-0.0393-68.6-0.0808-103-0.125-1.06-0.00136-2.11-0.00273-3.2-0.00413-10.6-0.0137-21.2-0.0274-31.8-0.0412-21.6-0.028-43.2-0.0558-64.9-0.0833-1.49-0.0019-1.49-0.0019-3.01-0.00384-66.4-0.0847-133-0.163-199-0.24 0.66-1.65 1.32-3.3 2-5z" fill="#4777CD"/>
<path transform="translate(715 452)" d="m0 0c1.87-0.00218 1.87-0.00218 3.77-0.0044 3.44-0.00301 6.88-0.00157 10.3 0.00178 3.75 0.00255 7.5-7.27e-4 11.2-0.00324 6.57-0.00361 13.1-0.00351 19.7-9.53e-4 9.77 0.00379 19.5 0.00185 29.3-0.00121 17.4-0.00527 34.9-0.00481 52.3-0.00192 15.3 0.00252 30.5 0.00317 45.8 0.00198 1.52-1.15e-4 1.52-1.15e-4 3.07-2.31e-4 4.11-3.11e-4 8.23-6.3e-4 12.3-9.6e-4 38.6-0.00306 77.2-2.85e-4 116 0.0051 34.3 0.00474 68.5 0.00432 103-4.61e-4 38.5-0.00536 77-0.00747 116-0.00439 4.11 3.21e-4 8.22 6.34e-4 12.3 9.43e-4 1.52 1.19e-4 1.52 1.19e-4 3.07 2.4e-4 15.3 0.00114 30.5-1.89e-4 45.8-0.00272 17.4-0.00287 34.7-0.00213 52.1 0.00328 9.7 0.00293 19.4 0.00314 29.1-6.46e-4 6.5-0.00226 13-8.22e-4 19.5 0.0035 3.69 0.00236 7.38 0.00323 11.1-4.06e-4 16.4-0.0151 32.8 0.241 49.3 1.13v1c-16.4 0.995-32.7 1.14-49.1 1.13-3.76-0.00257-7.52 7.36e-4 -11.3 0.00324-6.57 0.00359-13.1 0.00352-19.7 9.53e-4 -9.77-0.0038-19.5-0.00184-29.3 0.00121-17.5 0.00525-34.9 0.00482-52.4 0.00192-15.3-0.00252-30.5-0.00317-45.8-0.00198-1.01 7.64e-5 -2.03 1.53e-4 -3.07 2.31e-4 -4.12 3.11e-4 -8.23 6.3e-4 -12.4 9.6e-4 -38.6 0.00306-77.2 2.9e-4 -116-0.0051-34.3-0.00475-68.5-0.00432-103 4.61e-4 -38.5 0.00536-77.1 0.00748-116 0.00439-4.11-3.21e-4 -8.21-6.34e-4 -12.3-9.43e-4 -1.01-7.91e-5 -2.02-1.58e-4 -3.06-2.4e-4 -15.3-0.00114-30.5 1.92e-4 -45.8 0.00272-17.3 0.00286-34.7 0.00214-52-0.00328-9.71-0.00294-19.4-0.00313-29.1 6.46e-4 -6.49 0.00224-13 8.43e-4 -19.5-0.0035-3.69-0.00238-7.39-0.0032-11.1 4.06e-4 -3.99 0.00385-7.97-7.97e-5 -12-0.00472-1.71 0.00351-1.71 0.00351-3.45 0.00709-7.56-0.0176-15-0.457-22.6-1.13v-1c7.94-0.869 15.8-1.14 23.8-1.13z" fill="#4C66B3"/>
<path transform="translate(134 156)" d="m0 0c2.55-0.00982 5.09-0.041 7.64-0.0723 1.63-0.00652 3.26-0.0118 4.88-0.0156 0.757-0.0123 1.51-0.0247 2.29-0.0374 3.15 0.0134 5.48 0.181 8.3 1.63 1.82 2.06 2.08 3.06 2.21 5.79 0.0412 0.78 0.0825 1.56 0.125 2.36 0.0232 0.811 0.0464 1.62 0.0703 2.46 0.0464 0.803 0.0928 1.61 0.141 2.43 0.188 4.39 0.0701 7.7-2.02 11.7-0.309-0.639-0.619-1.28-0.938-1.94-0.897-2-0.897-2-2.06-3.06-0.234-1.85-0.413-3.7-0.562-5.56-0.0838-1.01-0.168-2.02-0.254-3.07-0.0606-0.782-0.121-1.56-0.184-2.37-0.928-0.155-0.928-0.155-1.88-0.312-2.12-0.688-2.12-0.688-4.12-3.69-2.66-0.583-2.66-0.583-5.62-0.688-1-0.0657-2.01-0.131-3.04-0.199-0.771-0.0374-1.54-0.0748-2.34-0.113v2c-2.97 0.66-5.94 1.32-9 2 1.11 0.309 2.23 0.619 3.38 0.938 5.27 1.55 5.27 1.55 6.81 3.81 1.01 2.79 0.595 4.43-0.188 7.25 1.22-0.0412 2.43-0.0825 3.69-0.125 5.14 0.0271 8.02 0.988 11.9 4.44 4.54 5.14 5.91 8.4 5.65 15.3-0.602 5.34-2.89 8.37-6.84 11.8-3.97 2.76-7.17 3.45-12 3.16-5.38-1.16-9.86-4.43-13.5-8.53-1.75-4.79-2.21-8.92-2-14-1.65-0.33-3.3-0.66-5-1v3c-0.99-0.33-1.98-0.66-3-1-0.99 0.495-0.99 0.495-2 1-2.13-0.0859-2.13-0.0859-4.56-0.375-1.21-0.135-1.21-0.135-2.44-0.273-2-0.352-2-0.352-3-1.35-0.283-4.6-0.232-9.21-0.25-13.8-0.0206-1.3-0.0413-2.59-0.0625-3.93-0.00516-1.25-0.0103-2.49-0.0156-3.78-0.00935-1.15-0.0187-2.29-0.0283-3.47 0.395-3.34 0.932-4.71 3.36-7.01 1.82-0.601 1.82-0.601 4.01-0.734 0.887-0.0548 1.77-0.11 2.69-0.166 6.55-0.197 13.1-0.325 19.6-0.34z" fill="#FAFCFE"/>
<path transform="translate(75 17.7)" d="m0 0c0.99 0.103 1.98 0.206 3 0.312 2.22 3.33 2.18 4.22 2 8.06-0.167 2.6-0.167 2.6 0 4.94 0.66 0.66 1.32 1.32 2 2 3.34-2.89 5.22-5.05 6.69-9.25 1.31-3.75 1.31-3.75 3.31-4.75 2-0.04 4-0.0435 6 0 1.06 3.27 1.12 4.7-0.188 7.94-1.81 3.06-1.81 3.06-4.12 6.12-2.03 2.77-2.03 2.77-1.12 5.5 0.474 0.804 0.949 1.61 1.44 2.44 0.516 0.908 1.03 1.81 1.56 2.75 1.25 2.13 1.25 2.13 2.44 3.25 0.103-1.01 0.206-2.02 0.312-3.06 0.931-5.33 2.66-9.4 5.69-13.9 4.45-2.31 7.98-3.65 13-3 2.88 1.37 2.88 1.37 5 3v2h2c-0.33 2.97-0.66 5.94-1 9-1.32 0.33-2.64 0.66-4 1v2c-2.64 0.99-5.28 1.98-8 3v1c0.71-0.0116 1.42-0.0232 2.15-0.0352 0.919-0.00902 1.84-0.018 2.79-0.0273l2.78-0.0352c2.29 0.0977 2.29 0.0977 3.29 1.1 0.0406 1.67 0.0427 3.33 0 5-4.78 2.83-9.6 2.41-15 2-3.69-1-3.69-1-6-2v2c-7.65 0.294-7.65 0.294-11-2-1.82-2.71-1.82-2.71-3.56-5.94-1.98-3.62-3.49-6.12-6.44-9.06-0.33 5.61-0.66 11.2-1 17-7 0-7 0-10-2-0.221-2.61-0.256-4.96-0.145-7.56 0.0217-0.747 0.0434-1.49 0.0658-2.26 0.0493-1.58 0.106-3.16 0.17-4.74 0.096-2.42 0.165-4.84 0.231-7.27 0.0512-1.53 0.104-3.07 0.158-4.6 0.021-0.727 0.0419-1.45 0.0635-2.2 0.313-7.14 0.313-7.14 5.46-7.67z" fill="#4E0F74"/>
<path transform="translate(133,19)" d="m0 0c0.66 1.98 1.32 3.96 2 6 0.804-0.928 0.804-0.928 1.62-1.88 2.79-2.49 4.7-3.45 8.38-4.12 2.88 1.25 2.88 1.25 5 3v2c0.557 0.268 1.11 0.536 1.69 0.812 2.31 1.19 2.31 1.19 4.88 2.81 2.41 1.62 2.41 1.62 5.44 1.38 0.651 1.25 1.3 2.5 1.94 3.75 0.539 1.04 0.539 1.04 1.09 2.11 1.99 4.39 2.31 8.32 1.97 13.1-1.32 3.05-2.64 4.69-5.12 6.88-4.23 1.66-7.54 1.39-11.9 0.125-5.27-2.63-9.52-5.52-12-11-0.726-1.44-1.46-2.88-2.19-4.31-0.598-1.22-1.2-2.43-1.81-3.69v12c0.99 0.33 1.98 0.66 3 1 2 3 2 3 1.62 5.19-0.206 0.598-0.412 1.2-0.625 1.81-1.39 0.082-2.79 0.14-4.19 0.188-0.777 0.0348-1.55 0.0696-2.36 0.105-3.26-0.389-4.89-1.23-7.46-3.29-0.615-3.14-0.615-3.14-0.594-6.97-4.03e-5 -0.677-8.06e-5 -1.35-1.22e-4 -2.05 0.00536-1.43 0.0229-2.86 0.0519-4.29 0.0419-2.19 0.0411-4.37 0.0342-6.56 0.0794-10.5 0.0794-10.5 1.84-13.1 2.52-1.62 4.76-1.27 7.67-1.08z" fill="#FACB7D"/>
<path transform="translate(27.6 18)" d="m0 0c3.1 1.3 3.94 2.66 5.64 5.53 1.84 3.35 1.84 3.35 4.81 5.5 0.464 1.21 0.464 1.21 0.938 2.44 0.908 2.86 0.908 2.86 4.06 4.56 0.049-1.13 0.098-2.26 0.148-3.43 0.075-1.48 0.151-2.96 0.227-4.45 0.0309-0.746 0.0619-1.49 0.0938-2.26 0.305-5.64 0.305-5.64 2.53-7.86 5.21-0.554 5.21-0.554 7.71 1.2 1.79 2.51 1.41 3.99 0.977 6.99-0.12 0.901-0.24 1.8-0.363 2.73-0.107 0.687-0.214 1.37-0.324 2.08 3.41 0 6.63-0.491 10-1 1.83 3.66 1.41 8.18 1.61 12.2 0.131 4.01 0.131 4.01 1.39 7.77 0.04 2 0.0435 4 0 6-8.03 0.309-8.03 0.309-11-2-1.25-2.63-1.25-2.63-2-5v7c-6.89 0.832-6.89 0.832-9.66-1.24-3.45-3.98-6.24-8.49-9.05-12.9-1.18-1.96-1.18-1.96-3.3-2.82 0.0116 1.14 0.0232 2.29 0.0352 3.46 0.00938 1.49 0.0185 2.98 0.0273 4.47 0.00838 0.755 0.0168 1.51 0.0254 2.29 0.00863 1.93-0.0356 3.85-0.0879 5.78-1 1-1 1-4.44 1.12-3.56-0.125-3.56-0.125-5.56-1.12-1.13-7.07-1.25-14.2-1.31-21.3-0.029-1.07-0.058-2.14-0.0879-3.24-0.00838-1.03-0.0168-2.06-0.0254-3.12-0.0146-0.927-0.0292-1.85-0.0442-2.81 0.752-4.02 2.84-6.49 7.02-6.55z" fill="#4E0E73"/>
<path transform="translate(285 492)" d="m0 0c1.08-0.00171 2.16-0.00342 3.28-0.00518 3.63-0.0033 7.27 0.00772 10.9 0.0186 2.6 5.64e-4 5.2 2.48e-4 7.81-8.85e-4 5.6-0.00105 11.2 0.00522 16.8 0.0165 8.1 0.0163 16.2 0.0215 24.3 0.024 13.1 0.00438 26.3 0.0177 39.4 0.0366 12.8 0.0184 25.5 0.0325 38.3 0.041 1.18 7.88e-4 1.18 7.88e-4 2.39 0.00159 3.95 0.00261 7.9 0.00514 11.8 0.00762 32.8 0.0207 65.5 0.056 98.3 0.101v2h3v-2c1.65 0.14 3.29 0.287 4.94 0.438 0.917 0.0812 1.83 0.162 2.78 0.246 2.29 0.316 2.29 0.316 3.29 1.32 1.47 0.122 2.95 0.178 4.43 0.205 0.941 0.0199 1.88 0.0399 2.85 0.0604 1.02 0.0167 2.05 0.0334 3.1 0.0506 1.04 0.0208 2.08 0.0416 3.16 0.063 3.34 0.0656 6.68 0.124 10 0.183 2.26 0.0432 4.52 0.0868 6.78 0.131 5.55 0.107 11.1 0.209 16.7 0.307v2c0.626-0.00524 1.25-0.0105 1.9-0.0159 2.83-0.0207 5.65-0.0338 8.48-0.0466 1.48-0.0126 1.48-0.0126 2.98-0.0254 1.41-0.00483 1.41-0.00483 2.85-0.00977 1.3-0.00786 1.3-0.00786 2.63-0.0159 2.15 0.114 2.15 0.114 4.15 1.11v3c-2 0-2 0-3.62-1.5-0.454-0.495-0.908-0.99-1.38-1.5v2c-0.678-0.0856-1.36-0.171-2.06-0.26-18.9-2.31-37.6-3.18-56.7-3.45-1.37-0.0208-1.37-0.0208-2.77-0.0421-1.7-0.0244-3.39-0.0448-5.09-0.06-4.25-0.0563-8.43-0.279-12.7-0.691-10.9-0.85-21.9-0.637-32.8-0.628-2.53-0.00136-5.06-0.00314-7.59-0.00531-6.13-0.00407-12.3-0.0035-18.4-5.87e-4 -4.98 0.00227-9.96 0.00256-14.9 0.00148-0.711-1.53e-4 -1.42-3.06e-4 -2.15-4.64e-4 -1.44-3.2e-4 -2.89-6.44e-4 -4.33-9.73e-4 -13.5-0.00284-27 4.17e-4 -40.5 0.0058-11.6 0.00448-23.2 0.00368-34.8-9.19e-4 -13.5-0.00535-27-0.00746-40.4-0.00439-1.44 3.19e-4 -2.87 6.33e-4 -4.31 9.43e-4 -1.06 2.31e-4 -1.06 2.31e-4 -2.14 4.68e-4 -4.98 8.64e-4 -9.96-5.95e-4 -14.9-0.00295-6.69-0.00309-13.4-9.04e-4 -20.1 0.00489-2.46 0.00133-4.92 9.34e-4 -7.38-0.00126-3.35-0.00271-6.69 6.7e-4 -10 0.00568-0.985-0.00223-1.97-0.00446-2.99-0.00676-0.891 0.00261-1.78 0.00522-2.7 0.0079-1.16 2.44e-4 -1.16 2.44e-4 -2.34 4.92e-4 -1.97 0.00959-1.97 0.00959-3.88 1.13-1.45 0.0834-2.9 0.107-4.35 0.0977-0.851-0.00322-1.7-0.00645-2.58-0.00977-0.889-0.00838-1.78-0.0168-2.7-0.0254-0.897-0.00451-1.79-0.00902-2.72-0.0137-2.22-0.0118-4.44-0.0283-6.66-0.0488v-1c1.75-0.0735 1.75-0.0735 3.54-0.148 1.55-0.0751 3.1-0.151 4.64-0.227 0.769-0.0309 1.54-0.0619 2.33-0.0938 0.751-0.0387 1.5-0.0773 2.28-0.117 0.686-0.0314 1.37-0.0628 2.08-0.0952 2.17-0.21 2.17-0.21 4.1-1.32 4.53-1.49 8.91-1.26 13.7-1.24z" fill="#FAFCFE"/>
<path transform="translate(183,173)" d="m0 0c3.88 2.58 3.81 4.63 5 9 0.66 0.33 1.32 0.66 2 1v-7c0.33 0.66 0.66 1.32 1 2h3v-2h2c0.66-1.32 1.32-2.64 2-4h4c1.75 2 1.75 2 3 4h-4v8c0.66 0.33 1.32 0.66 2 1v2h-2c0.27 2.44 0.27 2.44 1 5 0.99 0.66 1.98 1.32 3 2-0.99 0.66-1.98 1.32-3 2-0.66 0.99-1.32 1.98-2 3v-2c-4.53-0.934-4.53-0.934-9 0l-2-2c-1.24-0.464-1.24-0.464-2.5-0.938-2.5-1.06-2.5-1.06-4.5-4.06-0.66 1.32-1.32 2.64-2 4-0.33-1.65-0.66-3.3-1-5h-2c-0.33 1.98-0.66 3.96-1 6-1.32-0.33-2.64-0.66-4-1-0.116-3.1-0.187-6.21-0.25-9.31-0.0335-0.881-0.067-1.76-0.102-2.67-0.0986-6.49-0.0986-6.49 2.14-9.13 3.33-1.33 5.78-0.693 9.21 0.117z" fill="#F7F9FB"/>
<path transform="translate(143 180)" d="m0 0c4.54 0.616 6.83 1.9 10.1 5.03 3.2 5.08 2.56 10.8 1.55 16.5-1.69 3.38-1.69 3.38-5 5-6.66 0.835-12.5 1.17-18-3-3.05-4.98-3.45-8.92-2.64-14.7 0.988-3.56 2.66-5.21 5.64-7.31 2.77-0.946 5.42-1.06 8.31-1.5z" fill="#F9FCFE"/>
<path transform="translate(134 156)" d="m0 0c2.55-0.00982 5.09-0.041 7.64-0.0723 1.63-0.00652 3.26-0.0118 4.88-0.0156 0.757-0.0123 1.51-0.0247 2.29-0.0374 3.15 0.0134 5.48 0.181 8.3 1.63 1.82 2.06 2.08 3.06 2.21 5.79 0.0412 0.78 0.0825 1.56 0.125 2.36 0.0232 0.811 0.0464 1.62 0.0703 2.46 0.0464 0.803 0.0928 1.61 0.141 2.43 0.188 4.39 0.0701 7.7-2.02 11.7-0.309-0.639-0.619-1.28-0.938-1.94-0.897-2-0.897-2-2.06-3.06-0.234-1.85-0.413-3.7-0.562-5.56-0.0838-1.01-0.168-2.02-0.254-3.07-0.0606-0.782-0.121-1.56-0.184-2.37-0.928-0.155-0.928-0.155-1.88-0.312-2.12-0.688-2.12-0.688-4.12-3.69-2.55-0.338-4.86-0.489-7.41-0.512-0.73-0.018-1.46-0.0359-2.21-0.0544-2.33-0.0542-4.67-0.088-7-0.121-1.58-0.0332-3.16-0.0677-4.74-0.104-3.88-0.0851-7.75-0.152-11.6-0.209-0.112 0.634-0.224 1.27-0.34 1.92-0.218 0.686-0.436 1.37-0.66 2.08-2.56 1.25-2.56 1.25-5 2 0.0603 1.92 0.149 3.83 0.25 5.75 0.0464 1.07 0.0928 2.13 0.141 3.23 0.721 3.57 1.94 4.65 4.61 7.02v2c0.804 0.248 1.61 0.495 2.44 0.75 2.56 1.25 2.56 1.25 3.38 3.38 0.0619 0.619 0.124 1.24 0.188 1.88-0.99-0.33-1.98-0.66-3-1-0.99 0.495-0.99 0.495-2 1-2.13-0.0859-2.13-0.0859-4.56-0.375-1.21-0.135-1.21-0.135-2.44-0.273-2-0.352-2-0.352-3-1.35-0.283-4.6-0.232-9.21-0.25-13.8-0.0206-1.3-0.0413-2.59-0.0625-3.93-0.00516-1.25-0.0103-2.49-0.0156-3.78-0.00935-1.15-0.0187-2.29-0.0283-3.47 0.395-3.34 0.932-4.71 3.36-7.01 1.82-0.601 1.82-0.601 4.01-0.734 0.887-0.0548 1.77-0.11 2.69-0.166 6.55-0.197 13.1-0.325 19.6-0.34z" fill="#4D1477"/>
<path transform="translate(120 28.4)" d="m0 0c0.701 0.536 1.4 1.07 2.12 1.62v2h2c-0.33 2.97-0.66 5.94-1 9-1.32 0.33-2.64 0.66-4 1v2c-2.64 0.99-5.28 1.98-8 3v1c0.71-0.0116 1.42-0.0232 2.15-0.0352 0.919-0.00902 1.84-0.018 2.79-0.0273 0.917-0.0116 1.83-0.0232 2.78-0.0352 2.29 0.0977 2.29 0.0977 3.29 1.1 0.0406 1.67 0.0427 3.33 0 5-4.81 2.85-9.57 2.24-15 2-0.727-0.0296-1.45-0.0593-2.2-0.0898-1.86-0.16-1.86-0.16-4.8-0.91-2.01-2.6-2-4.14-1.9-7.46 0.173-1.29 0.345-2.58 0.523-3.91 0.157-1.29 0.315-2.57 0.477-3.9 0.977-4.05 2.3-6.49 4.9-9.73 5.5-3.06 10-4.41 15.9-1.62z" fill="#4A79CE"/>
<path transform="translate(1461,208)" d="m0 0c2 0 2 0 3.58 1.12 1.97 2.6 1.97 4.65 2.17 7.88 0.0773 1.05 0.155 2.1 0.234 3.19 0.0156 2.81 0.0156 2.81-0.984 5.81-0.0468 1.46-0.0384 2.92 0.00781 4.38 0.0168 0.839 0.0335 1.68 0.0508 2.54 0.0444 1.77 0.0965 3.53 0.156 5.3 0.0142 0.837 0.0284 1.67 0.043 2.54 0.0221 0.766 0.0442 1.53 0.0669 2.32-0.107 0.635-0.214 1.27-0.325 1.92-3 2-3 2-5.69 1.62-0.763-0.206-1.53-0.412-2.31-0.625 0.103 0.722 0.206 1.44 0.312 2.19-0.312 2.81-0.312 2.81-2.38 5.56-6.17 4.73-14.5 3.36-21.9 3.25 1-3 1-3 3.06-4.19 0.639-0.268 1.28-0.536 1.94-0.812h-6c1.32-0.66 2.64-1.32 4-2-1.32-0.66-2.64-1.32-4-2h8v-2c-0.66-0.33-1.32-0.66-2-1 0.818-0.346 0.818-0.346 1.65-0.699 12.2-4.75 12.2-4.75 20.3-14.3 1.63-7.3 0.823-14.6 0-22z" fill="#4675CE"/>
<path transform="translate(642,487)" d="m0 0h3c0.289 0.619 0.577 1.24 0.875 1.88 1.06 2.26 1.06 2.26 3.12 4.12-0.33 0.66-0.66 1.32-1 2h-4c-0.33 1.32-0.66 2.64-1 4 4.39 0.857 8.53 1.09 13 1v2c5.45 0.495 5.45 0.495 11 1v1c-1.75 0.506-3.5 1-5.25 1.5-0.975 0.278-1.95 0.557-2.95 0.844-2.8 0.656-2.8 0.656-6.8 0.656v3c-0.771 0.254-1.54 0.508-2.34 0.77-1 0.344-2.01 0.688-3.04 1.04-0.998 0.336-2 0.673-3.02 1.02-2.89 1.02-2.89 1.02-4.6 4.17h-4c-1.35 0.973-2.69 1.97-4 3-2.54 0.845-4.29 1-7 1 0.919-4.23 2.92-7.66 5.06-11.4 0.398-0.697 0.795-1.39 1.2-2.11 1.24-2.17 2.49-4.34 3.73-6.51 0.792-1.39 1.58-2.78 2.38-4.16 1.87-3.28 3.75-6.56 5.62-9.84z" fill="#4675CF"/>
<path transform="translate(1481,25)" d="m0 0c0.351 1.11 0.701 2.23 1.06 3.38 0.749 1.97 0.749 1.97 1.94 3.62 2.31 0.743 4.65 1.41 7 2 2.32 2.69 2.92 4.51 3.5 8-0.694 4.16-2.11 5.55-5.5 8-4.16 0.669-6.2 0.452-9.88-1.62-2.12-2.38-2.12-2.38-2.62-5.5-0.165-0.949-0.33-1.9-0.5-2.88-2.38-1.18-2.38-1.18-5-2-1.94-1.75-1.94-1.75-3-4 0.615-3.01 1.55-5.25 3.12-7.88 3.14-1.88 6.27-1.3 9.88-1.12z" fill="#4D1D7D"/>
<path transform="translate(133,19)" d="m0 0c0.841 3.65 1.12 7 1.1 10.7-0.00322 1.07-0.00645 2.13-0.00977 3.23-0.00838 1.1-0.0168 2.21-0.0254 3.34-0.00451 1.12-0.00902 2.24-0.0137 3.4-0.0118 2.76-0.0282 5.52-0.0488 8.29 0.99 0.33 1.98 0.66 3 1 2 3 2 3 1.62 5.19-0.206 0.598-0.412 1.2-0.625 1.81-1.39 0.082-2.79 0.14-4.19 0.188-0.777 0.0348-1.55 0.0696-2.36 0.105-3.26-0.389-4.89-1.23-7.46-3.29-0.615-3.14-0.615-3.14-0.594-6.97-4.03e-5 -0.677-8.06e-5 -1.35-1.22e-4 -2.05 0.00536-1.43 0.0229-2.86 0.0519-4.29 0.0419-2.19 0.0411-4.37 0.0342-6.56 0.0794-10.5 0.0794-10.5 1.84-13.1 2.52-1.62 4.76-1.27 7.67-1.08z" fill="#4E0E73"/>
<path transform="translate(1593,733)" d="m0 0h2v7h2c0.17 4.07 0.33 8.14 0.482 12.2 0.0528 1.38 0.108 2.76 0.166 4.14 0.347 8.31 0.395 16.4-0.648 24.6l-3-6c-0.619-0.309-1.24-0.619-1.88-0.938-2.29-1.14-3.52-2.07-5.12-4.06-0.328-2.19-0.328-2.19-0.25-4.56 0.0155-0.785 0.0309-1.57 0.0469-2.38 0.203-2.06 0.203-2.06 1.2-4.06 0.153-1.81 0.249-3.63 0.316-5.45 0.0628-1.61 0.0628-1.61 0.127-3.26 0.0393-1.13 0.0786-2.26 0.119-3.42 0.0432-1.14 0.0864-2.27 0.131-3.44 0.106-2.81 0.208-5.62 0.307-8.43h4v-2z" fill="#4778CF"/>
<path transform="translate(1435,28)" d="m0 0c3.14 6.8 3.33 12.6 3 20h-6c-0.289-0.639-0.578-1.28-0.875-1.94-0.953-2.21-0.953-2.21-3.12-3.06v-2h-2v7c-2.91 0.81-4.46 1.22-7.31 0.0625-0.835-0.526-0.835-0.526-1.69-1.06-0.223-6.57-0.162-10.6 4.44-15.7 5.16-4.65 7.03-4.38 13.6-3.31z" fill="#4778CF"/>
<path transform="translate(151,179)" d="m0 0c3.99 3.51 7.62 6.86 8.29 12.3 0.182 5.27-0.0978 9.29-3.29 13.7-3.84 4-7.37 6.38-13 6.69-6.56-0.404-11.7-3.84-16-8.69-2.15-5.49-2.29-9.36-1-15 1.94-2.25 1.94-2.25 4-4 1.24-2.13 1.24-2.13 2-4h3v-2c5.41-1.73 11-1.77 16 1zm-19.6 5.78c-2.59 4.26-2.92 9.47-1.91 14.3 1.59 4.25 3.56 6 7.56 7.9 3.44 0.547 3.44 0.547 7.06 0.5 1.21 0.0309 2.42 0.0619 3.66 0.0938 3.38-0.321 3.38-0.321 5.66-2.7 2.99-5.38 2.74-11 1.61-16.9-2.12-3.37-4.43-5.27-8-7-5.24-0.828-11.9-0.316-15.6 3.78z" fill="#4C62B0"/>
<path transform="translate(249,297)" d="m0 0c2.78 1.55 3.85 2.68 5.25 5.56 0.966 4.43 1.5 8.94 0.75 13.4-0.99 0.66-1.98 1.32-3 2-0.66-0.33-1.32-0.66-2-1-2 0.318-2 0.318-4.12 0.938-1.09 0.292-1.09 0.292-2.2 0.59-0.554 0.156-1.11 0.312-1.68 0.473v-2c-1.11-0.0928-1.11-0.0928-2.25-0.188-3.57-1.05-4.67-2.81-6.75-5.81 1.94-0.562 1.94-0.562 4-1 0.33 0.33 0.66 0.66 1 1 0.182-0.888 0.182-0.888 0.367-1.79 1.9-8.94 1.9-8.94 3.63-12.2 3.2-1.07 3.95-1.11 7 0z" fill="#F9FCFE"/>
<path transform="translate(190,300)" d="m0 0c-0.375 2.44-0.375 2.44-1 5-2.6 1.3-5.14 1.56-8 2v5c0.66 0.33 1.32 0.66 2 1-0.33 0.33-0.66 0.66-1 1h-7c-1.24 0.186-2.47 0.371-3.75 0.562-3.25 0.438-3.25 0.438-6.25-0.562-0.33-0.99-0.66-1.98-1-3-0.99 1.49-0.99 1.49-2 3-0.66-0.33-1.32-0.66-2-1-0.33 0.66-0.66 1.32-1 2h-9c0.99-0.33 1.98-0.66 3-1v-1.86-10.1c2.88 0.188 2.88 0.188 6 1 1.38 2.56 1.38 2.56 2 5 0.66-0.66 1.32-1.32 2-2 2.62-0.125 2.62-0.125 5 0-0.33-0.99-0.66-1.98-1-3 2.25-0.688 2.25-0.688 5-1 1.33 1 2.67 2 4 3 2.7-0.222 2.7-0.222 5-1v-2c6.75-2 6.75-2 9-2z" fill="#F5F7F8"/>
<path transform="translate(841,296)" d="m0 0c2.46 2.46 3 4.71 4 8 0.99-0.33 1.98-0.66 3-1 0.66 0.66 1.32 1.32 2 2-0.33 0.33-0.66 0.66-1 1 0.102 1.91 0.102 1.91 0.438 4.06 0.186 1.3 0.371 2.6 0.562 3.94-0.804-0.186-1.61-0.371-2.44-0.562-1.27-0.217-1.27-0.217-2.56-0.438-0.33 0.33-0.66 0.66-1 1-3.08 1.06-4.91 0.854-8 0-0.33 0.33-0.66 0.66-1 1-4.59 0.557-9.05-0.637-13-3-1-2.69-1-2.69-1-5-0.897-0.155-0.897-0.155-1.81-0.312-2.54-0.8-3.65-1.51-5.19-3.69 0.312-2.19 0.312-2.19 1-4l4 2v3c3.21 2.38 6.06 3.44 10 4-0.0206-0.804-0.0412-1.61-0.0625-2.44 0.0625-2.56 0.0625-2.56 1.06-3.56 3.83-0.174 7.27 0.122 11 1v-7z" fill="#D0D6E4"/>
<path transform="translate(267,173)" d="m0 0h8v2h2c2.54 5.79 3.54 9.01 1.21 15-2.44 5.62-2.44 5.62-5.77 7.08-2.44-0.125-2.44-0.125-5.44-2.12-0.33-0.99-0.66-1.98-1-3-0.762-0.698-0.762-0.698-1.54-1.41-2.37-2.58-1.86-5.08-1.77-8.43 0.385-2.73 1.32-4.26 3.3-6.16l2 1c-0.33-1.32-0.66-2.64-1-4z" fill="#F1F5FA"/>
<path transform="translate(252,173)" d="m0 0c3.69-0.205 5.77 0.276 9 2h3c-1 3-1 3-3 4 0.0464 0.641 0.0928 1.28 0.141 1.94 0.265 6.35-0.506 9.83-4.14 15.1-7.05 0.32-7.05 0.32-10-2-2.26-4.62-1.99-8.03-1-13h2c0.33-2.31 0.66-4.62 1-7 0.99 0.33 1.98 0.66 3 1v-2z" fill="#ECF1F8"/>
<path transform="translate(122,296)" d="m0 0c2.97 0.33 5.94 0.66 9 1 0.33 1.65 0.66 3.3 1 5 2.6 0.027 5.21 0.0468 7.81 0.0625 0.738 0.00838 1.48 0.0168 2.24 0.0254 3.25 0.0147 5.85-0.0526 8.95-1.09v7c-0.66-0.99-1.32-1.98-2-3-0.33 2.64-0.66 5.28-1 8h-2c-0.33-1.98-0.66-3.96-1-6-0.33 1.98-0.66 3.96-1 6-0.66-0.33-1.32-0.66-2-1v-4l-2 1c-0.33-0.99-0.66-1.98-1-3h-3c-1.11 1.88-1.11 1.88-2 4 0.33 0.66 0.66 1.32 1 2-3.16 0.936-5.97 1.11-9.25 1.06-0.892-0.00902-1.78-0.018-2.7-0.0273-0.675-0.0116-1.35-0.0232-2.05-0.0352-0.224-1.89-0.428-3.79-0.625-5.69-0.116-1.06-0.232-2.11-0.352-3.2-0.0245-3.25 0.568-5.22 1.98-8.11z" fill="#F7F9FA"/>
<path transform="translate(860,301)" d="m0 0c0.66 0.66 1.32 1.32 2 2 2.04 0.205 2.04 0.205 4.31 0.0625 2.76-0.0755 4.9-0.0176 7.62 0.562 0.681 0.124 1.36 0.248 2.06 0.375 0.66-0.66 1.32-1.32 2-2 2.62 0.375 2.62 0.375 5 1-0.186 0.887-0.371 1.77-0.562 2.69-0.418 3.16-0.245 5.26 0.562 8.31h-9v-5c-0.268 0.804-0.536 1.61-0.812 2.44-0.392 0.846-0.784 1.69-1.19 2.56-0.99 0.33-1.98 0.66-3 1-0.33-0.33-0.66-0.66-1-1-0.99 0.33-1.98 0.66-3 1-0.742-0.165-1.49-0.33-2.25-0.5-3.44-0.626-6.32-0.105-9.75 0.5l4-2c-0.247-1.42-0.247-1.42-0.5-2.88-0.5-3.12-0.5-3.12-0.5-5.12h-2c-0.33-0.99-0.66-1.98-1-3 4.75-1 4.75-1 7-1z" fill="#CCD4E4"/>
<path transform="translate(201 303)" d="m0 0c3.71 1.11 4.73 0.546 8.12-1.06h4c0.8 3.29 1.1 4.71 0 8 0.66 0.33 1.32 0.66 2 1-0.33 0.99-0.66 1.98-1 3-1.17-0.0174-1.17-0.0174-2.37-0.0352-1.01-0.00902-2.02-0.018-3.07-0.0273-1.51-0.0174-1.51-0.0174-3.06-0.0352-2.44-0.188-2.44-0.188-3.5 1.1-4.82 0.284-8.5-0.246-13-2v2h-5c0.66-0.99 1.32-1.98 2-3h2c0.33-2.31 0.66-4.62 1-7h2v4c0.598-0.969 1.2-1.94 1.81-2.94 2.67-3.73 3.68-4.62 8.06-3z" fill="#BFC8DF"/>
<path transform="translate(66.8 19.8)" d="m0 0c2.19 2.19 2.19 2.19 2.38 4.38-0.0299 0.886-0.0598 1.77-0.0906 2.68-0.123 6.12 0.104 12.2 0.395 18.3 0.0477 1.05 0.0954 2.09 0.145 3.17 0.116 2.55 0.235 5.09 0.355 7.64-3.75-2.5-3.94-3.68-5-8-0.355-3.12-0.505-6.24-0.625-9.38-0.0387-0.831-0.0773-1.66-0.117-2.52-0.0936-2.03-0.177-4.07-0.258-6.11-1.48 0.281-2.96 0.575-4.44 0.875-1.24 0.244-1.24 0.244-2.5 0.492-0.682 0.209-1.36 0.418-2.07 0.633-0.33 0.66-0.66 1.32-1 2-0.197-1.42-0.382-2.83-0.562-4.25-0.104-0.789-0.209-1.58-0.316-2.39-0.124-2.41 0.0335-4.1 0.879-6.36 4.44-2.47 8.01-2.57 12.8-1.19z" fill="#F0F1F3"/>
<path transform="translate(1532,29)" d="m0 0c2.97 0.495 2.97 0.495 6 1 1 6.63 1 6.63 1 10 0.33 0.66 0.66 1.32 1 2h2c0.66 1.32 1.32 2.64 2 4-3.02 3.16-4.27 3.95-8.81 4.25-3.82-0.0556-6.2-0.715-9.19-3.25-0.812-2.19-0.812-2.19-1-4 1.65-0.99 3.3-1.98 5-3-0.227-1.07-0.454-2.14-0.688-3.25-0.312-3.75-0.312-3.75 1.12-6.19l1.56-1.56z" fill="#4D0F73"/>
<path transform="translate(143 187)" d="m0 0c0.619 0.289 1.24 0.577 1.88 0.875 1.38 4.15 2 7.61 2 12-0.33 0.66-0.66 1.32-1 2 0.99 0.33 1.98 0.66 3 1 1.97-1.97 1.66-5.35 2-8 0.66 0.33 1.32 0.66 2 1 0.875 3.31 0.875 3.31 1 7-1.59 2.21-1.59 2.21-4 4-3.09 0.461-3.09 0.461-6.5 0.375-1.12-0.0129-2.25-0.0258-3.41-0.0391-2.9-0.315-4.63-0.827-7.09-2.34v-7c0.66-0.33 1.32-0.66 2-1v3h2c0.0374-0.687 0.0748-1.37 0.113-2.08 0.0657-0.901 0.131-1.8 0.199-2.73 0.058-0.893 0.116-1.79 0.176-2.71 0.706-3.42 1.94-5.57 5.64-5.36z" fill="#F8FAFB"/>
<path transform="translate(1444,125)" d="m0 0c0.66 0.66 1.32 1.32 2 2h-2v2h3c0.66 1.98 1.32 3.96 2 6-3.18 2.73-5.93 3.7-10 4.62-1.03 0.24-2.06 0.48-3.12 0.727-0.949 0.214-1.9 0.428-2.88 0.648-1.33 0.329-2.67 0.661-4 1 0.33-0.99 0.66-1.98 1-3-1.32-0.33-2.64-0.66-4-1 0.99-0.99 1.98-1.98 3-3h-2c0.33-1.65 0.66-3.3 1-5h2v-4c1.33 0.667 2.67 1.33 4 2 1.68-0.279 3.35-0.608 5-1v-1c2.38-0.625 2.38-0.625 5-1z" fill="#4778CD"/>
<path transform="translate(792,227)" d="m0 0c3 1 3 1 5 4v3h-2c-0.826 2.89-1 4.89-1 8-0.99 2.47-0.99 2.47-2 5h11c0.33 0.66 0.66 1.32 1 2-0.808 0.0606-1.62 0.121-2.45 0.184-1.6 0.126-1.6 0.126-3.24 0.254-1.06 0.0812-2.11 0.162-3.2 0.246-5.57 0.566-8.34 0.986-12.1 5.32-0.66-0.33-1.32-0.66-2-1h-2c0.489-5.46 2.5-8.99 5.38-13.5 0.802-1.28 1.6-2.56 2.4-3.84 0.38-0.611 0.76-1.22 1.15-1.85 1.51-2.53 2.8-5.15 4.08-7.8z" fill="#4675CF"/>
<path transform="translate(183,173)" d="m0 0c3 2 3 2 3.94 5.31 0.0625 3.69 0.0625 3.69-1.44 6.62-2.5 2.06-2.5 2.06-6.25 2.38-1.07-0.103-2.15-0.206-3.25-0.312v8c-1.32-0.33-2.64-0.66-4-1-0.116-3.1-0.187-6.21-0.25-9.31-0.0335-0.881-0.067-1.76-0.102-2.67-0.0986-6.49-0.0986-6.49 2.14-9.13 3.33-1.33 5.78-0.693 9.21 0.117z" fill="#4D67B4"/>
<path transform="translate(1539,25)" d="m0 0c2.4 1.1 3.96 2.28 6 4-0.33 0.66-0.66 1.32-1 2-3.06 0.625-3.06 0.625-6 1v-2c-2.92-0.25-2.92-0.25-6 0-2.42 2.9-2.42 2.9-1.44 6.5 0.438 3.5 0.438 3.5-0.688 5.38-2.27 1.36-4.27 1.77-6.88 2.12-2.47-3.7-2.31-5.62-2-10 1.01-3.44 3.29-5.79 6.09-8.01 3.8-1.97 7.77-1.74 11.9-0.988z" fill="#F8FAFB"/>
<path transform="translate(1481,25)" d="m0 0c0.99 2.97 1.98 5.94 3 9-1.65-0.33-3.3-0.66-5-1-1.41 2.38-1.41 2.38-2 5-0.33 0.66-0.66 1.32-1 2-2.79-0.906-4.75-1.77-6.94-3.75-1.06-2.25-1.06-2.25-0.438-5.31 3.04-6.5 5.52-6.27 12.4-5.94z" fill="#4C5DAC"/>
<path transform="translate(231,173)" d="m0 0c1.62 2.06 1.62 2.06 3 5 0.557 1.13 1.11 2.27 1.69 3.44 1.3 3.53 1.66 5.85 1.31 9.56-0.33 0.66-0.66 1.32-1 2h3c-0.33 0.99-0.66 1.98-1 3h-4v-2c-0.701 0.351-1.4 0.701-2.12 1.06-3.55 1.16-5.34 1.14-8.88-0.0625-2.58-2.99-3.91-4.91-4.25-8.88 0.0825-0.701 0.165-1.4 0.25-2.12h2c0.33-0.99 0.66-1.98 1-3-0.0928 1.61-0.0928 1.61-0.188 3.25-0.0649 3.62-0.0649 3.62 1.31 6.06 2.42 2.18 4.76 2.86 7.88 3.69 1.27-7.64 1.27-7.64 0.438-15.2-2.26-2.75-5.07-3-8.44-3.75 3.21-2.14 4.27-2.65 8-2z" fill="#F4F6F8"/>
<path transform="translate(198,172)" d="m0 0h4c1.75 2 1.75 2 3 4h-4v8c0.66 0.33 1.32 0.66 2 1v2h-2c0.27 2.44 0.27 2.44 1 5 0.99 0.66 1.98 1.32 3 2-0.99 0.66-1.98 1.32-3 2-0.66 0.99-1.32 1.98-2 3v-2c-0.928-0.217-0.928-0.217-1.88-0.438-2.12-0.562-2.12-0.562-4.12-1.56v-2h5c0.418-2.83 0.418-2.83 0-6-2.38-2.22-2.38-2.22-5-4-1-3-1-3-0.145-5.04 0.44-0.708 0.879-1.42 1.33-2.14 0.427-0.715 0.853-1.43 1.29-2.17 0.501-0.543 1-1.09 1.52-1.64z" fill="#4F6BB8"/>
<path transform="translate(1455,132)" d="m0 0c8.65-0.337 15.9 0.0556 24 3 0.723 0.16 1.45 0.32 2.19 0.484 1.81 0.516 1.81 0.516 3.12 2.33 0.797 2.54 0.416 3.69-0.312 6.19-0.692-0.338-1.38-0.675-2.1-1.02-8.34-3.8-15.9-5.15-24.9-5.98 1.32-0.66 2.64-1.32 4-2v-2h-6v-1z" fill="#4778CD"/>
<path transform="translate(132,184)" d="m0 0c0.897 0.526 0.897 0.526 1.81 1.06 2.3 1.27 2.3 1.27 5.19-0.0625 2.34 0.278 4.68 0.605 7 1-0.66 0.66-1.32 1.32-2 2h-5c-0.66 3.96-1.32 7.92-2 12h-2c-0.33-0.66-0.66-1.32-1-2v6h-2c-3.18-5.84-3.51-10.5-2-17 0.66-0.99 1.32-1.98 2-3z" fill="#FAFCFE"/>
<path transform="translate(841,296)" d="m0 0c2.46 2.46 3 4.71 4 8 0.99-0.33 1.98-0.66 3-1 0.66 0.66 1.32 1.32 2 2-0.33 0.33-0.66 0.66-1 1 0.102 1.91 0.102 1.91 0.438 4.06 0.186 1.3 0.371 2.6 0.562 3.94-0.804-0.186-1.61-0.371-2.44-0.562-0.846-0.144-1.69-0.289-2.56-0.438-0.33 0.33-0.66 0.66-1 1-3.01 1-3.86 1.05-7 0 0.33-3.63 0.66-7.26 1-11h3v-7z" fill="#EAEBED"/>
<path transform="translate(190,300)" d="m0 0c-0.375 2.44-0.375 2.44-1 5-2.6 1.3-5.14 1.56-8 2v5c0.66 0.33 1.32 0.66 2 1-1 1-1 1-3.07 1.1-0.824-0.0116-1.65-0.0232-2.5-0.0352-0.826-0.00902-1.65-0.018-2.5-0.0273-0.638-0.0116-1.28-0.0232-1.93-0.0352-2.13-3.74-1.96-5.79-1-10 0.557 0.186 1.11 0.371 1.69 0.562 2.71 0.513 4.66 0.102 7.31-0.562v-2c6.75-2 6.75-2 9-2z" fill="#B8C2DD"/>
<path transform="translate(209,302)" d="m0 0h4c0.8 3.29 1.1 4.71 0 8 0.66 0.33 1.32 0.66 2 1-0.33 0.99-0.66 1.98-1 3h-10c-0.33-2.31-0.66-4.62-1-7h-3v-3c2.05-0.228 4.1-0.456 6.15-0.684 1.86-0.135 1.86-0.135 2.85-1.32z" fill="#D5DBE8"/>
<path transform="translate(137,168)" d="m0 0c1.85 2.26 1.98 3.66 2.12 6.56-1.38 2.99-2.19 3.12-5.19 4.25-1.31 0.416-2.62 0.818-3.94 1.19v-2c-2.47-0.99-2.47-0.99-5-2 1.45-6.53 1.45-6.53 3.75-8.5 3.1-0.689 5.22-0.423 8.25 0.5z" fill="#4D1376"/>
<path transform="translate(1488,232)" d="m0 0c5.41 1.41 5.41 1.41 7 3 0.289 3.57 0.0297 6.01-2 9-2.84 0.947-4.68 1.13-7.62 1.12-1.19 0.00387-1.19 0.00387-2.41 0.00781-1.96-0.133-1.96-0.133-2.96-1.13-0.0406-1.67-0.0427-3.33 0-5h2c0.99 1.49 0.99 1.49 2 3 0.103-1.28 0.206-2.56 0.312-3.88 0.176-2.18 0.176-2.18 0.688-4.12 0.99-0.66 1.98-1.32 3-2z" fill="#4778CD"/>
<path transform="translate(1510,241)" d="m0 0c3.59 1.33 6.75 2.96 10 5-0.33 0.66-0.66 1.32-1 2h-4v2c1.65 0.33 3.3 0.66 5 1-0.33 0.66-0.66 1.32-1 2-1.94 0.0811-3.87 0.139-5.81 0.188-1.08 0.0348-2.16 0.0696-3.27 0.105-2.92-0.293-2.92-0.293-4.8-1.68-1.11-1.61-1.11-1.61-1.11-3.61 2.47 0.495 2.47 0.495 5 1-0.0206-1.13-0.0412-2.27-0.0625-3.44 0.0625-3.56 0.0625-3.56 1.06-4.56z" fill="#4878CD"/>
<path transform="translate(1539,30)" d="m0 0c2.31 0.33 4.62 0.66 7 1 0.942 2.83 1.13 4.63 1.12 7.56 0.00258 0.785 0.00516 1.57 0.00781 2.38-0.133 2.06-0.133 2.06-1.13 4.06-1.32-0.33-2.64-0.66-4-1v-2c-2.97-0.495-2.97-0.495-6-1 0.66-0.33 1.32-0.66 2-1 0.468-2.36 0.468-2.36 0.625-5.06 0.0748-0.919 0.15-1.84 0.227-2.79 0.049-0.71 0.098-1.42 0.148-2.15z" fill="#F1F3F5"/>
<path transform="translate(89,322)" d="m0 0h1c0.62 10.3 1.12 20.5 0.938 30.8-0.0223 3.2-0.0223 3.2 0.625 6.3 0.459 3.04 0.104 4.92-0.562 7.89-0.334 8.05-0.0302 16 1 24h-2c-1.08-3.51-1.12-6.76-1.11-10.4 7.55e-5 -1.3 1.51e-4 -2.6 2.29e-4 -3.94 0.00511-1.42 0.0103-2.83 0.0156-4.25 0.00187-1.45 0.00329-2.9 0.00429-4.35 0.00381-3.81 0.0136-7.63 0.0247-11.4 0.0102-3.89 0.0148-7.79 0.0198-11.7 0.0107-7.64 0.0278-15.3 0.0488-22.9z" fill="#FAFDFF"/>
<path transform="translate(149,301)" d="m0 0h2v7c-0.66-0.99-1.32-1.98-2-3-0.33 2.64-0.66 5.28-1 8h-2c-0.33-1.98-0.66-3.96-1-6-0.33 1.98-0.66 3.96-1 6-0.66-0.33-1.32-0.66-2-1v-4l-2 1c-0.33-0.99-0.66-1.98-1-3h-3c-0.66 0.99-1.32 1.98-2 3-0.934-3.01-1.04-3.87 0-7 0.999 0.0116 2 0.0232 3.03 0.0352 1.29 0.00902 2.58 0.018 3.91 0.0273 1.93 0.0174 1.93 0.0174 3.9 0.0352 3.02 0.268 3.02 0.268 4.16-1.1z" fill="#ABB8DA"/>
<path transform="translate(1532,29)" d="m0 0c3.12 0.375 3.12 0.375 6 1 1.12 6.62 1.12 6.62 0 10-2.31 0.33-4.62 0.66-7 1-1.82-3.76-2.3-5.99-1-10 0.66-0.66 1.32-1.32 2-2z" fill="#531778"/>
<path transform="translate(124,32)" d="m0 0h1v22c-0.66 0.33-1.32 0.66-2 1-0.66-1.98-1.32-3.96-2-6h-10v-3c2.91-1.26 4.8-2 8-2v-2c0.99-0.33 1.98-0.66 3-1 0.806-2.11 0.806-2.11 1.19-4.56 0.238-1.24 0.238-1.24 0.48-2.5 0.11-0.638 0.219-1.28 0.332-1.93z" fill="#E6E9F0"/>
<path transform="translate(1368 77.9)" d="m0 0c0.829 0.00202 1.66 0.00405 2.51 0.00613 0.85-9.57e-4 1.7-0.00191 2.58-0.0029 1.8-6.82e-4 3.61 0.00117 5.41 0.00534 2.75 0.00531 5.5 7.35e-5 8.25-0.00635 1.75 6.61e-4 3.51 0.00194 5.26 0.00391 1.23-0.00304 1.23-0.00304 2.48-0.00613 4.31 0.0175 8.35 0.28 12.6 1.14v1c-6.07 0.192-12.1 0.371-18.2 0.537-2.07 0.0584-4.13 0.121-6.2 0.187-2.97 0.094-5.93 0.175-8.9 0.253-1.39 0.0483-1.39 0.0483-2.8 0.0976-0.861 0.0202-1.72 0.0403-2.61 0.0611-0.757 0.0222-1.51 0.0444-2.29 0.0673-1.99-0.203-1.99-0.203-4.99-2.2 1.85-1.85 4.45-1.13 6.91-1.14z" fill="#4675CF"/>
<path transform="translate(1479,33)" d="m0 0c1.65 0.33 3.3 0.66 5 1-0.33 3.96-0.66 7.92-1 12h3v2c-3.58 0.325-5.4 0.43-8.38-1.69-1.94-2.76-1.87-4.01-1.62-7.31-0.29-1.34-0.61-2.68-1-4h3c0.33-0.66 0.66-1.32 1-2z" fill="#4D1477"/>
<path transform="translate(1539,25)" d="m0 0c2.4 1.1 3.96 2.28 6 4-0.33 0.66-0.66 1.32-1 2-3.06 0.625-3.06 0.625-6 1v-2c-3.34-0.0743-5.8-0.0655-9 1-0.99 1.48-0.99 1.48-2 3-0.33-0.99-0.66-1.98-1-3-0.99 0.33-1.98 0.66-3 1 0-2 0-2 2.38-4.62 4.16-3.32 8.53-3.31 13.6-2.38z" fill="#D7D9E5"/>
<path transform="translate(136,305)" d="m0 0c2.01 0.287 4.01 0.619 6 1 0.33 1.98 0.66 3.96 1 6 0.66-2.31 1.32-4.62 2-7h1v9c-4.74 1.19-9.13 1-14 1 0.476-1.48 0.956-2.96 1.44-4.44 0.267-0.824 0.534-1.65 0.809-2.5 0.754-2.07 0.754-2.07 1.75-3.07z" fill="#F2F3F5"/>
<path transform="translate(480,776)" d="m0 0c0.66 0.66 1.32 1.32 2 2h-2c0.0206 1.11 0.0412 2.23 0.0625 3.38-0.0625 3.62-0.0625 3.62-1.06 5.62-2.66 1.75-4.97 2.99-8 4-1.13-1.71-1.13-1.71-2-4 0.723-2.32 0.723-2.32 2.06-4.69 0.424-0.788 0.848-1.58 1.29-2.39 2.09-2.44 3.54-2.54 6.65-2.93 0.33-0.33 0.66-0.66 1-1z" fill="#4676CD"/>
<path transform="translate(215,492)" d="m0 0c4.63-0.0248 9.25-0.0429 13.9-0.0549 1.57-0.00502 3.15-0.0118 4.72-0.0205 2.26-0.0122 4.53-0.0178 6.79-0.0222 0.701-0.00516 1.4-0.0103 2.12-0.0156 3.31-3.79e-4 6.32 0.0881 9.48 1.11v2c-4.95 0.0247-9.9 0.0429-14.8 0.0549-1.68 0.00503-3.37 0.0119-5.05 0.0205-2.42 0.0121-4.84 0.0178-7.25 0.0222-0.755 0.00516-1.51 0.0103-2.29 0.0156-5.34 5.75e-4 -5.34 5.75e-4 -7.56-1.11v-2z" fill="#FAFCFE"/>
<path transform="translate(149 182)" d="m0 0c1.99 2.22 2.31 3.88 2.62 6.81h-2v-2h-3v2h-2v-2c-5.05-0.938-5.05-0.938-10 0-0.66-0.33-1.32-0.66-2-1 0.688-1.94 0.688-1.94 2-4 4.56-1.56 10-1.99 14.4 0.188z" fill="#F8F9FA"/>
<path transform="translate(140,406)" d="m0 0c1.77-0.0541 3.54-0.0928 5.31-0.125 0.986-0.0232 1.97-0.0464 2.99-0.0703 2.7 0.195 2.7 0.195 5.7 2.2-0.33 1.32-0.66 2.64-1 4-0.33-1.32-0.66-2.64-1-4h-3v5c-3.55 0.0807-6.58-0.0575-10-1h-3c0.33-0.99 0.66-1.98 1-3h2c0.33-0.99 0.66-1.98 1-3z" fill="#5472BE"/>
<path transform="translate(185,404)" d="m0 0c0.566 0.321 1.13 0.642 1.71 0.973 3.06 1.38 5.85 1.41 9.16 1.59 2.61 0.543 3.55 1.31 5.12 3.44v3l-6-3v3c-3.82 0.218-6.62-0.123-10-2-0.688-2.06-0.688-2.06-1-4-0.66-0.33-1.32-0.66-2-1h3v-2z" fill="#5471BD"/>
<path transform="translate(777,249)" d="m0 0c0.66 0.33 1.32 0.66 2 1-0.658 1.67-1.33 3.34-2 5-0.392 1.24-0.784 2.48-1.19 3.75-0.598 1.07-1.2 2.14-1.81 3.25-3.69 0.938-3.69 0.938-7 1 0.309-1.63 0.622-3.25 0.938-4.88 0.261-1.36 0.261-1.36 0.527-2.74 0.535-2.38 0.535-2.38 1.54-4.38 1.66-0.382 3.32-0.714 5-1 0.66-0.33 1.32-0.66 2-1z" fill="#F9FBFB"/>
<path transform="translate(143 187)" d="m0 0c0.619 0.289 1.24 0.577 1.88 0.875 1.38 4.15 2 7.61 2 12-1.98 0.99-1.98 0.99-4 2v-2c-0.66-0.33-1.32-0.66-2-1-1.06-2.31-1.06-2.31-2-5-0.402-1.05-0.402-1.05-0.812-2.12-0.188-1.88-0.188-1.88 1-3.69 1.81-1.19 1.81-1.19 3.94-1.06z" fill="#526DBA"/>
<path transform="translate(892,305)" d="m0 0 2 1c1.17 3.98 1.08 7.87 1 12 0.577 0.268 1.15 0.536 1.75 0.812 2.25 1.19 2.25 1.19 4.06 2.75 2.96 1.95 5.7 2.1 9.19 2.44 0.33 0.99 0.66 1.98 1 3-6.14-0.431-9.95-1.41-15-5-3.94-4.56-4.71-8.16-5-14 0.33-0.99 0.66-1.98 1-3z" fill="#C9D1E4"/>
<path transform="translate(850,303)" d="m0 0h4v2c0.99-0.33 1.98-0.66 3-1v3c0.314 2 0.645 4 1 6h-6v2h-2c-0.0735-0.957-0.0735-0.957-0.148-1.93-0.0748-0.826-0.15-1.65-0.227-2.5-0.0696-0.824-0.139-1.65-0.211-2.5-0.137-0.682-0.273-1.36-0.414-2.07-0.66-0.33-1.32-0.66-2-1h3v-2z" fill="#F4F6F7"/>
<path transform="translate(1438,244)" d="m0 0c0.33 0.66 0.66 1.32 1 2h2c-0.33 1.32-0.66 2.64-1 4-7.23 1.75-12.4 1.22-19-2 2.81-2.81 5.84-2.7 9.62-3.12 0.706-0.0864 1.41-0.173 2.14-0.262 1.74-0.212 3.49-0.414 5.23-0.613z" fill="#4574CD"/>
<path transform="translate(134,35)" d="m0 0c2.2 2.2 3.04 4.34 4.21 7.18 1.99 4.72 1.99 4.72 5.79 7.82-0.33 0.99-0.66 1.98-1 3-0.66-0.66-1.32-1.32-2-2-1.96-0.888-1.96-0.888-4.12-1.62-0.724-0.26-1.45-0.521-2.2-0.789-0.554-0.193-1.11-0.387-1.68-0.586-0.0269-1.98-0.0463-3.96-0.0625-5.94-0.0116-1.1-0.0232-2.2-0.0352-3.34 0.0977-2.72 0.0977-2.72 1.1-3.72z" fill="#F0F1F3"/>
<path transform="translate(1461,208)" d="m0 0c2 0 2 0 3.58 1.12 1.97 2.6 1.97 4.65 2.17 7.88 0.0773 1.05 0.155 2.1 0.234 3.19 0.0156 2.81 0.0156 2.81-0.984 5.81h-2v2h-2c-0.33-6.6-0.66-13.2-1-20z" fill="#4675CE"/>
<path transform="translate(252,173)" d="m0 0c3.69-0.205 5.77 0.276 9 2h3c-1 3-1 3-3 4 0.0348 0.675 0.0696 1.35 0.105 2.05 0.0271 0.892 0.0541 1.78 0.082 2.7 0.0348 0.882 0.0696 1.76 0.105 2.67-0.344 3.02-1.3 4.33-3.29 6.58-0.0606-0.987-0.121-1.97-0.184-2.99-0.0838-1.28-0.168-2.56-0.254-3.88-0.122-1.91-0.122-1.91-0.246-3.87-0.108-3.14-0.108-3.14-1.32-5.26h-7c0.33-0.99 0.66-1.98 1-3 0.66 0.33 1.32 0.66 2 1v-2z" fill="#B6C1DE"/>
<path transform="translate(817,297)" d="m0 0c2.64 0.33 5.28 0.66 8 1 0.99 2.97 1.98 5.94 3 9-0.99 0.66-1.98 1.32-3 2-0.413-0.454-0.825-0.908-1.25-1.38-1.65-1.75-1.65-1.75-3.88-2.38-1.88-1.25-1.88-1.25-2.62-4.88-0.0825-1.11-0.165-2.23-0.25-3.38z" fill="#F2F5F8"/>
<path transform="translate(64,19)" d="m0 0c1 1 1 1 1.06 4.56-0.0206 1.13-0.0413 2.27-0.0625 3.44h-8c-0.66-1.98-1.32-3.96-2-6 3.12-1.85 5.38-2.29 9-2z" fill="#4E0E73"/>
<path transform="translate(122,296)" d="m0 0h4c0.124 0.577 0.248 1.15 0.375 1.75 0.631 2.27 1.51 4.18 2.62 6.25-1.98 0.99-3.96 1.98-6 3v6h-2c-0.224-1.89-0.428-3.79-0.625-5.69-0.116-1.06-0.232-2.11-0.352-3.2-0.0245-3.25 0.568-5.22 1.98-8.11z" fill="#E0E4ED"/>
<path transform="translate(1379,84)" d="m0 0c0.33 0.66 0.66 1.32 1 2 1.22-0.126 1.22-0.126 2.46-0.254 7.35-0.676 14.2-0.699 21.5 0.254-4.52 3.01-8.17 3.18-13.4 3.19-1.32 0.0142-2.64 0.0284-4 0.043-3.22-0.208-4.91-0.509-7.57-2.23v-3z" fill="#4775CF"/>
<path transform="translate(112,34)" d="m0 0c2.47 0.99 2.47 0.99 5 2-0.33 1.98-0.66 3.96-1 6 0.66-0.33 1.32-0.66 2-1 0.33 0.99 0.66 1.98 1 3-2.64 0.33-5.28 0.66-8 1-2.07-4.38-2.07-4.38-1.75-7.19 0.75-1.81 0.75-1.81 2.75-3.81z" fill="#738FCF"/>
<path transform="translate(173,303)" d="m0 0c-0.186 1.05-0.371 2.1-0.562 3.19-0.388 3.38-0.32 5.58 0.562 8.81h-5c-2-5.62-2-5.62-2-9h2c-0.33-0.99-0.66-1.98-1-3 2.49-1.25 3.41-0.777 6 0z" fill="#CCD3E4"/>
<path transform="translate(189,305)" d="m0 0c-0.33 2.97-0.66 5.94-1 9-1.98 0.33-3.96 0.66-6 1-2.07-4.38-2.07-4.38-1.75-7.25 1.62-3.78 5.17-2.83 8.75-2.75z" fill="#F7F9FA"/>
<path transform="translate(909,293)" d="m0 0c3.72-0.354 5.75-0.124 9.12 1.56 4.68 3.97 6.85 7.89 7.62 13.9 0.124 1.76 0.124 1.76 0.25 3.56-0.99-0.33-1.98-0.66-3-1-0.52-1.86-0.52-1.86-0.812-4.19-0.977-5.07-2.95-7.88-7.19-10.8-3.2-1.4-3.2-1.4-6-2v-1z" fill="#E0E3EA"/>
<path transform="translate(240,303)" d="m0 0c1.91 3.21 2.22 5.54 2.12 9.25-0.018 0.892-0.0361 1.78-0.0547 2.7-0.0348 1.01-0.0348 1.01-0.0703 2.05-3.67-0.306-4.78-0.758-7.31-3.56-0.557-0.804-1.11-1.61-1.69-2.44 1.94-0.562 1.94-0.562 4-1 0.33 0.33 0.66 0.66 1 1 0.144-1.13 0.289-2.27 0.438-3.44 0.562-3.56 0.562-3.56 1.56-4.56z" fill="#CFD6E6"/>
<path transform="translate(1484,180)" d="m0 0h3c-1.49 4.7-1.49 4.7-4.06 6.19-0.639 0.268-1.28 0.536-1.94 0.812-0.33 0.66-0.66 1.32-1 2-5.45 1.28-5.45 1.28-8 0v-3c0.699-0.266 1.4-0.531 2.12-0.805 0.91-0.353 1.82-0.706 2.76-1.07 0.905-0.348 1.81-0.696 2.74-1.05 2.5-0.956 2.5-0.956 4.38-3.07z" fill="#4675CF"/>
<path transform="translate(1476,27)" d="m0 0h6c0.66 2.31 1.32 4.62 2 7-1.65-0.33-3.3-0.66-5-1-0.66 1.32-1.32 2.64-2 4-1.62-1.62-1.62-1.62-3-4 0.812-3.25 0.812-3.25 2-6z" fill="#7679B8"/>
<path transform="translate(126,297)" d="m0 0h5c0.0825 0.784 0.165 1.57 0.25 2.38 0.478 2.77 0.478 2.77 2.81 3.94 0.639 0.227 1.28 0.454 1.94 0.688-0.66 0.66-1.32 1.32-2 2v3h-2v-2c-1.65-0.33-3.3-0.66-5-1 0.33-0.66 0.66-1.32 1-2-0.99-0.66-1.98-1.32-3-2 0.66-0.33 1.32-0.66 2-1-0.99-0.66-1.98-1.32-3-2h2v-2z" fill="#F4F5F6"/>
<path transform="translate(1379,81)" d="m0 0h25c-5.52 3.68-14.5 3.93-21 3-1.32-0.99-2.64-1.98-4-3z" fill="#4675CF"/>
<path transform="translate(1484,35)" d="m0 0h3c0.66 3.3 1.32 6.6 2 10-2.31 0.66-4.62 1.32-7 2-0.178-4.55 0.00215-7.88 2-12z" fill="#5C73BB"/>
<path transform="translate(54,21)" d="m0 0c2 2 2 2 3 5 3.51 1.23 3.51 1.23 7 2v2c-0.638 0.121-1.28 0.242-1.93 0.367-0.826 0.168-1.65 0.335-2.5 0.508-1.24 0.244-1.24 0.244-2.5 0.492-0.682 0.209-1.36 0.418-2.07 0.633-0.33 0.66-0.66 1.32-1 2-0.197-1.42-0.382-2.83-0.562-4.25-0.104-0.789-0.209-1.58-0.316-2.39-0.121-2.36 0.183-4.11 0.879-6.36z" fill="#E0E3EA"/>
<path transform="translate(847,303)" d="m0 0c0.99 0.66 1.98 1.32 3 2-0.33 0.33-0.66 0.66-1 1 0.102 1.91 0.102 1.91 0.438 4.06 0.186 1.3 0.371 2.6 0.562 3.94-1.65-0.33-3.3-0.66-5-1v-3c-0.99 0.33-1.98 0.66-3 1v-7h3l2-1z" fill="#CBD3E5"/>
<path transform="translate(138,193)" d="m0 0c3.78 3.52 3.78 3.52 5 6.12 1.26 2.37 2.56 2.9 5 3.88-0.99 1.49-0.99 1.49-2 3-3 0.375-3 0.375-6 0-0.66-0.99-1.32-1.98-2-3h2c-0.495-1.08-0.495-1.08-1-2.19-1.01-2.83-1.17-4.84-1-7.81z" fill="#F0F1F3"/>
<path transform="translate(198,172)" d="m0 0h4c1.75 2 1.75 2 3 4h-4c-0.33 1.98-0.66 3.96-1 6-2.47-0.99-2.47-0.99-5-2 0.75-5.75 0.75-5.75 3-8z" fill="#7085C1"/>
<path transform="translate(176,176)" d="m0 0c5.75-0.125 5.75-0.125 8 1v6c-2.67 1.33-4.17 0.671-7 0-0.33-2.31-0.66-4.62-1-7z" fill="#F8FBFC"/>
<path transform="translate(801 252)" d="m0 0c0.836 0.00451 1.67 0.00902 2.53 0.0137 2.05 0.0117 4.1 0.0297 6.15 0.0488v2c-1.93 0.0909-1.93 0.0909-3.9 0.184-1.68 0.0844-3.36 0.169-5.04 0.254-1.28 0.059-1.28 0.059-2.58 0.119-0.809 0.0419-1.62 0.0838-2.45 0.127-0.749 0.0367-1.5 0.0733-2.27 0.111-1.79 0.023-1.79 0.023-2.77 1.21-2 0.0408-4 0.0425-6 0 2-3 2-3 4.04-3.68 4.1-0.439 8.15-0.421 12.3-0.379z" fill="#4775CF"/>
<path transform="translate(265,176)" d="m0 0 2 1v15c-0.99-0.33-1.98-0.66-3-1-1.16-2.33-1.17-3.79-1.19-6.38-0.0142-0.771-0.0284-1.54-0.043-2.34 0.252-2.51 0.979-4.12 2.23-6.29z" fill="#5472BE"/>
<path transform="translate(1413,152)" d="m0 0c0.66 0.66 1.32 1.32 2 2 0.66-0.66 1.32-1.32 2-2v16c-1.98 0.99-1.98 0.99-4 2v-18z" fill="#567CCB"/>
<path transform="translate(1377,186)" d="m0 0c1.68 0.286 3.34 0.618 5 1 0.33 2.31 0.66 4.62 1 7h1c0.262 3.15 0.248 4.62-1.5 7.31-0.743 0.835-0.743 0.835-1.5 1.69-0.268-1.16-0.536-2.31-0.812-3.5-1.07-4.32-2.56-8.36-4.19-12.5 0.33-0.33 0.66-0.66 1-1z" fill="#4978CC"/>
<path transform="translate(153,302)" d="m0 0c2.97 0.495 2.97 0.495 6 1v3h-2v-2h-2v10h2c-0.33-1.65-0.66-3.3-1-5h3v6h-9c0.99-0.33 1.98-0.66 3-1v-1.86-10.1z" fill="#D9DEE8"/>
<path transform="translate(666 501)" d="m0 0c0.871-0.0161 1.74-0.0322 2.64-0.0488 1.25-9.67e-4 1.25-9.67e-4 2.52-0.00195 0.76-0.00298 1.52-0.00596 2.3-0.00903 0.63 0.123 1.26 0.246 1.91 0.372 0.66 0.99 1.32 1.98 2 3-8.25-0.33-16.5-0.66-25-1 4.86-2.43 8.3-2.33 13.6-2.31z" fill="#4878CD"/>
<path transform="translate(67,31)" d="m0 0c2.56 2.56 2.3 3.67 2.41 7.23 0.0387 1.03 0.0773 2.06 0.117 3.12 0.0309 1.08 0.0619 2.16 0.0938 3.27 0.0387 1.09 0.0773 2.18 0.117 3.3 0.0945 2.69 0.18 5.39 0.258 8.08-3-2-3-2-3.71-4.04-0.398-4.13-0.131-8.14 0.152-12.3 0.0522-0.836 0.104-1.67 0.158-2.53 0.129-2.05 0.266-4.1 0.404-6.15z" fill="#EAEBED"/>
<path transform="translate(1393,235)" d="m0 0c4 2 4 2 7 4-0.33 1.32-0.66 2.64-1 4-1.42 0.217-1.42 0.217-2.88 0.438-3.02 0.392-3.02 0.392-5.12 1.56 0.66-3.3 1.32-6.6 2-10z" fill="#4775CE"/>
<path transform="translate(666 506)" d="m0 0c0.876-0.0161 1.75-0.0322 2.65-0.0488 0.837-6.45e-4 1.67-0.00129 2.54-0.00195 0.766-0.00298 1.53-0.00596 2.32-0.00903 0.635 0.123 1.27 0.246 1.92 0.372 0.66 0.99 1.32 1.98 2 3-8.04 0.167-16-0.353-24-1 4.18-2.79 7.65-2.33 12.6-2.31z" fill="#4878CD"/>
<path transform="translate(231,173)" d="m0 0c3.07 3.92 3.34 6.92 3.19 11.8-0.0271 1.16-0.0541 2.32-0.082 3.52-0.0348 0.88-0.0696 1.76-0.105 2.67-1.97-3.57-2-5.94-2-10-0.409-2.32-0.409-2.32-2-4-3.55-1.3-3.55-1.3-7-2 3.21-2.14 4.27-2.65 8-2z" fill="#869BCF"/>
<path transform="translate(658 492)" d="m0 0c2.42 0.345 4.84 0.622 7.27 0.887 1.14 0.126 1.14 0.126 2.31 0.254 0.557 0.0606 1.11 0.121 1.69 0.184-3.98 2.71-8.14 2.22-12.8 2.12-0.793-0.00902-1.59-0.018-2.4-0.0273-1.95-0.0235-3.9-0.0594-5.85-0.0977 0.33-0.99 0.66-1.98 1-3 3.25-1.08 5.39-0.802 8.73-0.324z" fill="#4273CA"/>
<path transform="translate(817,248)" d="m0 0h29v1c-1.18 0.0606-2.37 0.121-3.59 0.184-8.16 0.429-16.3 0.899-24.4 1.82-0.33-0.99-0.66-1.98-1-3z" fill="#4675CF"/>
<path transform="translate(147,20)" d="m0 0c1.67 0.324 3.33 0.659 5 1 1.02 0.124 1.02 0.124 2.06 0.25 2.99 1.16 4.24 3.1 5.94 5.75-0.33 0.99-0.66 1.98-1 3-3.14-1.83-6.23-3.64-9-6v-2c-0.99-0.33-1.98-0.66-3-1v-1z" fill="#F1EFEE"/>
<path transform="translate(75,384)" d="m0 0h1v7h-2c0.0232 0.843 0.0464 1.69 0.0703 2.55 0.018 1.1 0.0361 2.19 0.0547 3.32 0.0232 1.09 0.0464 2.18 0.0703 3.3-0.195 2.82-0.195 2.82-2.2 4.82-0.195-1.94-0.381-3.87-0.562-5.81-0.104-1.08-0.209-2.16-0.316-3.27-0.121-2.92-0.121-2.92 0.879-5.92h2c0.33-1.98 0.66-3.96 1-6z" fill="#FAFDFF"/>
<path transform="translate(221,181)" d="m0 0h1c-0.0928 1.61-0.0928 1.61-0.188 3.25-0.0526 3.6-0.0526 3.6 1.25 6.06 2.71 2.36 5.48 2.9 8.94 3.69-3 2-3 2-5.94 2-3.06-1-3.06-1-5.44-3.75-1.59-3.18-2.03-4.78-1.62-8.25h2v-3z" fill="#5979C4"/>
<path transform="translate(262,177)" d="m0 0 2 1v14c-1.32 0.33-2.64 0.66-4 1v-15l2-1z" fill="#EAEBED"/>
<path transform="translate(77,327)" d="m0 0c0.66 0.33 1.32 0.66 2 1-0.66 3.3-1.32 6.6-2 10h2c-0.115 1.44-0.242 2.88-0.375 4.31-0.0696 0.801-0.139 1.6-0.211 2.43-0.414 2.26-0.414 2.26-2.41 5.26 0.0206-1.05 0.0413-2.1 0.0625-3.19 0.0773-3.6 0.0773-3.6-0.625-6.19-0.514-3.09-0.126-5.38 0.5-8.44 0.195-0.976 0.389-1.95 0.59-2.96 0.156-0.736 0.312-1.47 0.473-2.23z" fill="#FAFCFE"/>
<path transform="translate(1455,240)" d="m0 0c-1.44 3-1.44 3-4 6-3.06 0.537-5.93 0.355-9 0 1-3 1-3 4.25-4.69 3.29-1.15 5.34-1.62 8.75-1.31z" fill="#4273CA"/>
<path transform="translate(119,490)" d="m0 0c8.25 1.32 16.5 2.64 25 4v1c-5.68 0.0988-11.3 0.0658-17-0.312-1.33-0.087-1.33-0.087-2.69-0.176-2.67-0.591-3.65-1.38-5.31-3.51v-1z" fill="#FAFCFC"/>
<path transform="translate(1553 78.1)" d="m0 0 3.81 0.146c1.32 0.0561 2.64 0.112 4 0.17 1.34 0.0532 2.68 0.106 4.02 0.158 3.29 0.13 6.57 0.265 9.86 0.404v1c-4.25 0.226-8.5 0.428-12.8 0.625-1.21 0.0645-2.41 0.129-3.66 0.195-1.16 0.0516-2.32 0.103-3.52 0.156-1.07 0.0524-2.14 0.105-3.24 0.159-2.87-0.137-4.42-0.641-6.84-2.14 2.85-1.42 5.15-1.01 8.32-0.879z" fill="#4775CF"/>
<path transform="translate(1537,712)" d="m0 0c7.7-0.77 14 3.53 20 8v2c-2.01-0.999-4.01-2-6-3.04-0.66-0.339-1.32-0.678-2-1.03-0.99-0.512-0.99-0.512-2-1.04-1.99-0.896-3.87-1.44-6-1.9v-2c-1.32-0.33-2.64-0.66-4-1z" fill="#4778CD"/>
<path transform="translate(176,187)" d="m0 0h8c0.268 0.619 0.536 1.24 0.812 1.88 1.14 2.42 1.14 2.42 4.19 4.12v2c-3.65-1.25-4.78-1.67-7-5-0.66 1.32-1.32 2.64-2 4-0.33-1.65-0.66-3.3-1-5-0.99-0.33-1.98-0.66-3-1v-1z" fill="#CDD4E6"/>
<path transform="translate(194,179)" d="m0 0c1.18 0.526 1.18 0.526 2.38 1.06 1.3 0.464 1.3 0.464 2.62 0.938 0.66-0.33 1.32-0.66 2-1v4c0.66 0.33 1.32 0.66 2 1v2c-0.99 0.33-1.98 0.66-3 1-5.7-4.11-5.7-4.11-7-8l1-1z" fill="#4C66B3"/>
<path transform="translate(94,431)" d="m0 0h1c0.0553 0.565 0.111 1.13 0.168 1.71 0.253 2.55 0.511 5.11 0.77 7.66 0.087 0.889 0.174 1.78 0.264 2.7 0.087 0.851 0.174 1.7 0.264 2.58l0.238 2.38c0.204 2.04 0.204 2.04 1.3 3.97h-3c-1.17-2.35-1.12-3.74-1.1-6.35 0.00322-0.851 0.00645-1.7 0.00977-2.58 0.00838-0.889 0.0168-1.78 0.0254-2.7 0.00451-0.897 0.00902-1.79 0.0137-2.72 0.0118-2.22 0.0283-4.44 0.0488-6.66z" fill="#FAFDFF"/>
<path transform="translate(1536,425)" d="m0 0h2v25h-2c-0.197-3.42-0.381-6.83-0.562-10.2-0.0561-0.968-0.112-1.94-0.17-2.93-0.0483-0.935-0.0967-1.87-0.146-2.83-0.0471-0.859-0.0943-1.72-0.143-2.6 0.0211-2.31 0.36-4.18 1.02-6.38z" fill="#4778CE"/>
<path transform="translate(1531,294)" d="m0 0c1.97 3.47 2.82 6.93 3.69 10.8 0.272 1.18 0.544 2.36 0.824 3.58 0.515 3.8 0.204 6.86-0.512 10.6-1.98-2.96-2.26-3.68-2.41-7.01-0.058-1.14-0.058-1.14-0.117-2.29-0.0464-1.18-0.0464-1.18-0.0938-2.38-0.058-1.2-0.058-1.2-0.117-2.42-0.0941-1.97-0.177-3.93-0.258-5.9-0.66-0.33-1.32-0.66-2-1 0.33-1.32 0.66-2.64 1-4z" fill="#4777CD"/>
<path transform="translate(155,168)" d="m0 0h3v2h2c0.178 4.55-0.00215 7.88-2 12-0.309-0.639-0.619-1.28-0.938-1.94-0.897-2-0.897-2-2.06-3.06-0.0718-1.52-0.0839-3.04-0.0625-4.56 0.00902-0.826 0.018-1.65 0.0273-2.5 0.0116-0.638 0.0232-1.28 0.0352-1.93z" fill="#4C5BAB"/>
<path transform="translate(248,177)" d="m0 0h1v16c-0.33-0.99-0.66-1.98-1-3h-2c-1.12-6.75-1.12-6.75 0-9h2v-4z" fill="#506CB8"/>
<path transform="translate(1535,740)" d="m0 0h1c0.33 1.65 0.66 3.3 1 5 1.65 0.33 3.3 0.66 5 1-0.598 0.289-1.2 0.577-1.81 0.875-2.38 1.17-2.38 1.17-5.19 3.12h-3c-0.688-1.81-0.688-1.81-1-4 1.38-1.56 1.38-1.56 3-3 0.33-0.99 0.66-1.98 1-3z" fill="#EAEBED"/>
<path transform="translate(193,492)" d="m0 0c1.94-0.027 3.87-0.0464 5.81-0.0625 1.08-0.0116 2.16-0.0232 3.27-0.0352 2.92 0.0977 2.92 0.0977 5.92 1.1v2c-10.6 1.33-10.6 1.33-15 0v-3z" fill="#FAFCFE"/>
<path transform="translate(225,313)" d="m0 0c0.66 0.99 1.32 1.98 2 3 1.3 1.27 1.3 1.27 2.62 2.56 2.38 2.44 2.38 2.44 2.38 4.44h2v3c-2.47-0.99-2.47-0.99-5-2v-2h-2c-1.69-1.69-1.69-1.69-3-4 0.312-2.75 0.312-2.75 1-5z" fill="#D7DCE8"/>
<path transform="translate(151,301)" d="m0 0c2.52 2.63 2.99 3.91 3.31 7.62-0.312 3.38-0.312 3.38-2.31 5.38-0.99-0.33-1.98-0.66-3-1v-5h2v-7z" fill="#EAEDF2"/>
<path transform="translate(764,246)" d="m0 0h3v6c0.66 0.33 1.32 0.66 2 1h-2c-0.33 0.99-0.66 1.98-1 3-0.33-0.99-0.66-1.98-1-3-0.66-0.33-1.32-0.66-2-1 0.66-1.32 1.32-2.64 2-4-0.66-0.33-1.32-0.66-2-1 0.33-0.33 0.66-0.66 1-1zm6 0h2c-0.33 1.65-0.66 3.3-1 5-0.66-1.32-1.32-2.64-2-4 0.33-0.33 0.66-0.66 1-1z" fill="#FAFCFC"/>
<path transform="translate(1411,121)" d="m0 0c0.33 0.66 0.66 1.32 1 2 2.02 1.13 2.02 1.13 4 2 0.054 1.62 0.0928 3.25 0.125 4.88 0.0232 0.905 0.0464 1.81 0.0703 2.74-0.195 2.38-0.195 2.38-2.2 4.38-0.504-2.1-1-4.21-1.5-6.31-0.418-1.76-0.418-1.76-0.844-3.55-0.656-3.14-0.656-3.14-0.656-6.14z" fill="#4775CF"/>
<path transform="translate(136,305)" d="m0 0h2c0.0269 1.48 0.0463 2.96 0.0625 4.44 0.0116 0.824 0.0232 1.65 0.0352 2.5-0.0977 2.07-0.0977 2.07-1.1 3.07-1.67 0.0406-3.33 0.0427-5 0 0.476-1.48 0.956-2.96 1.44-4.44 0.267-0.824 0.534-1.65 0.809-2.5 0.754-2.07 0.754-2.07 1.75-3.07z" fill="#F3F5F6"/>
<path transform="translate(1498,751)" d="m0 0c2.77 2.33 3.46 3.92 3.81 7.5 0.0889 0.773 0.178 1.55 0.27 2.34-0.082 2.16-0.082 2.16-2.08 5.16-2.59-4.86-2.19-9.65-2-15z" fill="#4878CD"/>
<path transform="translate(1524,250)" d="m0 0c2.94 0.75 2.94 0.75 6 2 0.875 2.12 0.875 2.12 1 4h-4c-0.33 1.32-0.66 2.64-1 4-1.6-3.51-2.22-6.14-2-10z" fill="#4778CD"/>
<path transform="translate(276,176)" d="m0 0c2 1 2 1 3.19 3.75 0.839 3.35 0.865 5-0.188 8.25-0.99 1.49-0.99 1.49-2 3-0.0606-0.759-0.121-1.52-0.184-2.3-0.0838-0.994-0.168-1.99-0.254-3.01-0.0812-0.986-0.162-1.97-0.246-2.99-0.235-2.79-0.235-2.79-1.32-5.7 0.33-0.33 0.66-0.66 1-1z" fill="#506CB9"/>
<path transform="translate(271,190)" d="m0 0h2c0.124 0.639 0.248 1.28 0.375 1.94 0.309 1.02 0.309 1.02 0.625 2.06 0.66 0.33 1.32 0.66 2 1-0.66 0.66-1.32 1.32-2 2-2.62-0.327-4.64-0.82-7-2 0.33-0.99 0.66-1.98 1-3h2c0.33-0.66 0.66-1.32 1-2z" fill="#D2DAEA"/>
<path transform="translate(693,772)" d="m0 0h11c0.33 0.99 0.66 1.98 1 3h-12v-3z" fill="#4779D0"/>
<path transform="translate(1493,502)" d="m0 0c-1.33 0.667-2.67 1.33-4 2-0.526 0.34-1.05 0.681-1.59 1.03-3.64 1.47-7.27 1.44-11.2 1.59-1.19 0.058-1.19 0.058-2.4 0.117-1.95 0.0939-3.9 0.177-5.85 0.258v-1c0.941-0.121 1.88-0.242 2.85-0.367 1.87-0.251 1.87-0.251 3.77-0.508 1.23-0.162 2.46-0.325 3.73-0.492 5.11-0.887 9.4-2.94 14.6-2.63z" fill="#4678D1"/>
<path transform="translate(1529,30)" d="m0 0c1.13 3.4 1.74 6.43 2 10-1.44 1.94-1.44 1.94-3 3-0.66-0.33-1.32-0.66-2-1v-8h2c0.33-1.32 0.66-2.64 1-4z" fill="#F6F7F9"/>
<path transform="translate(242,307)" d="m0 0h4v5c0.66 0.33 1.32 0.66 2 1h-2v2c-1.32-0.33-2.64-0.66-4-1v-7z" fill="#F0F1F3"/>
<path transform="translate(908,301)" d="m0 0h2c0.66 1.65 1.32 3.3 2 5h-2v7h-1v-5c-0.99-0.33-1.98-0.66-3-1 0.875-4.88 0.875-4.88 2-6z" fill="#4F6AB7"/>
<path transform="translate(238,292)" d="m0 0c10.9 1.61 10.9 1.61 15 6v2c-2.34-1.17-4.65-2.36-6.94-3.62-3.04-1.36-4.79-1.66-8.06-1.38v-3z" fill="#AEBDDE"/>
<path transform="translate(908,292)" d="m0 0c0.33 0.99 0.66 1.98 1 3-1.83 0.309-1.83 0.309-3.69 0.625-4.82 1.16-6.53 3.38-9.31 7.38l-2-1v-2c5.48-5 5.48-5 8-5v-2c3-1 3-1 6-1z" fill="#EAEBED"/>
<path transform="translate(256,177)" d="m0 0c1.32 0.33 2.64 0.66 4 1 0.915 5.56 1.32 9.68-1 15-1.28-3.83-1.42-7.5-1.72-11.5-0.136-2.49-0.136-2.49-1.28-4.5z" fill="#4C66B3"/>
<path transform="translate(79,38)" d="m0 0c2.5 1.69 2.5 1.69 5 4 0.312 2.75 0.312 2.75 0 5h-4c-1.48-2.96-1.06-5.74-1-9z" fill="#F1F3F4"/>
<path transform="translate(642,772)" d="m0 0h11c-0.33 0.99-0.66 1.98-1 3h-10v-3z" fill="#4779D0"/>
<path transform="translate(202,185)" d="m0 0h2v2h2v6c-1.65-0.33-3.3-0.66-5-1-0.125-4.75-0.125-4.75 1-7z" fill="#D5DBE9"/>
<path transform="translate(649,505)" d="m0 0v2c-1.05 0.402-1.05 0.402-2.12 0.812-4.67 1.93-8.93 4-12.9 7.19 1.44-3.57 3.18-5.15 6.38-7.25 0.771-0.521 1.54-1.04 2.34-1.58 2.29-1.17 2.29-1.17 6.29-1.17z" fill="#4678D1"/>
<path transform="translate(172,304)" d="m0 0h2c0.66 2.97 1.32 5.94 2 9h-4c-1.12-5.62-1.12-5.62 0-9z" fill="#4D68B5"/>
<path transform="translate(1481,25)" d="m0 0v2c-0.99 0.33-1.98 0.66-3 1-0.66-0.33-1.32-0.66-2-1-0.33 0.66-0.66 1.32-1 2v-2c-2.51 1.26-2.87 2.5-4 5-0.66-0.99-1.32-1.98-2-3 3.59-4.79 6.42-4.37 12-4z" fill="#4D197B"/>
<path transform="translate(841,296)" d="m0 0c2.76 2.76 2.58 5.21 3 9h-5v7h-1v-9h3v-7z" fill="#EDEEF0"/>
<path transform="translate(1522,32)" d="m0 0c0.66 0.33 1.32 0.66 2 1-0.0206 0.887-0.0412 1.77-0.0625 2.69 0.0554 2.93 0.393 5.47 1.06 8.31-1.32-0.66-2.64-1.32-4-2-0.125-7.75-0.125-7.75 1-10z" fill="#DADBE5"/>
<path transform="translate(611,772)" d="m0 0c1.46-0.081 2.92-0.139 4.38-0.188 0.812-0.0348 1.62-0.0696 2.46-0.105 0.714 0.0967 1.43 0.193 2.16 0.293 0.66 0.99 1.32 1.98 2 3h-11v-3z" fill="#4779D0"/>
<path transform="translate(140,406)" d="m0 0c0.99 0.33 1.98 0.66 3 1v5c-1.98 0.33-3.96 0.66-6 1-0.33-0.66-0.66-1.32-1-2 0.33-0.66 0.66-1.32 1-2h2c0.33-0.99 0.66-1.98 1-3z" fill="#4F6BB7"/>
<path transform="translate(1250,246)" d="m0 0h12v3h-12v-3z" fill="#4775CF"/>
<path transform="translate(1377,222)" d="m0 0c2.83 3.2 3.52 5.78 4 10h-4c-1.12-6.62-1.12-6.62 0-10z" fill="#4775CF"/>
<path transform="translate(143 187)" d="m0 0c0.639 0.248 1.28 0.495 1.94 0.75 0.33 0.99 0.66 1.98 1 3-0.66 0.66-1.32 1.32-2 2h-4c-0.33-1.65-0.66-3.3-1-5 2-1 2-1 4.06-0.75z" fill="#5C7AC3"/>
<path transform="translate(1491,152)" d="m0 0c0.474 0.495 0.949 0.99 1.44 1.5 1.32 1.62 1.32 1.62 2.56 1.5v8c-0.99 0.495-0.99 0.495-2 1-0.53-1.62-1.05-3.25-1.56-4.88-0.29-0.905-0.58-1.81-0.879-2.74-0.559-2.38-0.559-2.38 0.441-4.38z" fill="#4675CE"/>
<path transform="translate(78,355)" d="m0 0h1v15h-1c-0.389-2.12-0.761-4.25-1.12-6.38-0.209-1.18-0.418-2.37-0.633-3.59-0.0799-1-0.16-2.01-0.242-3.04 0.66-0.66 1.32-1.32 2-2z" fill="#FAFCFE"/>
<path transform="translate(1438,244)" d="m0 0c0.33 0.66 0.66 1.32 1 2h2v2c-1.46 0.054-2.92 0.0928-4.38 0.125-0.812 0.0232-1.62 0.0464-2.46 0.0703-2.16-0.195-2.16-0.195-4.16-2.2 2.64-0.66 5.28-1.32 8-2z" fill="#4273CA"/>
<path transform="translate(126,177)" d="m0 0c0.743 0.351 1.48 0.701 2.25 1.06 2.88 0.983 3.96 0.97 6.75-0.0625 0.33 0.99 0.66 1.98 1 3-0.804 0.124-1.61 0.248-2.44 0.375-1.27 0.309-1.27 0.309-2.56 0.625-0.33 0.66-0.66 1.32-1 2h-2c-0.66-2.31-1.32-4.62-2-7z" fill="#E4E7EF"/>
<path transform="translate(1426,41)" d="m0 0h2v2h2v5c-1.32 0.33-2.64 0.66-4 1-1.12-5.75-1.12-5.75 0-8z" fill="#F1F3F5"/>
<path transform="translate(1539,34)" d="m0 0h3v8c-2.97-0.495-2.97-0.495-6-1 0.66-0.33 1.32-0.66 2-1 0.658-3.03 0.658-3.03 1-6z" fill="#F7F9FA"/>
<path transform="translate(241,307)" d="m0 0h1v10c-1.65-0.33-3.3-0.66-5-1-0.33-0.99-0.66-1.98-1-3h5v-6z" fill="#4D67B4"/>
<path transform="translate(853,305)" d="m0 0v6h-4v-5c-0.66-0.33-1.32-0.66-2-1 3-1 3-1 6 0z" fill="#F9FBFB"/>
<path transform="translate(121,299)" d="m0 0h1v6c1.32 0.33 2.64 0.66 4 1-0.99 0.33-1.98 0.66-3 1v6h-2c-0.195-1.96-0.38-3.92-0.562-5.88-0.104-1.09-0.209-2.18-0.316-3.3-0.121-2.82-0.121-2.82 0.879-4.82z" fill="#4E69B6"/>
<path transform="translate(119,46)" d="m0 0c0.33 0.99 0.66 1.98 1 3h-9v-3c3.29-1.1 4.71-0.8 8 0z" fill="#EAEBED"/>
<path transform="translate(32,38)" d="m0 0c4.88 4.75 4.88 4.75 6 7-0.279 1.68-0.608 3.35-1 5-5-7.5-5-7.5-5-12z" fill="#F1F3F4"/>
<path transform="translate(54,36)" d="m0 0h1c0.0606 1.12 0.121 2.24 0.184 3.39 0.0844 1.47 0.169 2.95 0.254 4.42 0.0393 0.738 0.0786 1.48 0.119 2.24 0.187 3.18 0.431 5.91 1.44 8.95-1.32-0.66-2.64-1.32-4-2 0.33-5.61 0.66-11.2 1-17z" fill="#EAEBED"/>
</svg>
